<svg xmlns="http://www.w3.org/2000/svg" width="980" height="520" viewBox="0 0 980 520" role="img">
<style>
    .title{font:700 18px system-ui,Segoe UI,Arial}
    .label{font:600 13px system-ui,Segoe UI,Arial; fill:#0f172a}
    .legend{font:600 12px system-ui,Segoe UI,Arial; fill:#0f172a}
    .note{font:500 11px system-ui,Segoe UI,Arial; fill:#475569}
    .box{fill:#f8fafc; stroke:#cbd5e1}
    .pipe{fill:none; stroke:#475569; stroke-width:3}
    .arrow{marker-end:url(#arrow)}
  </style>
  <defs>
   <marker id="arrow" viewBox="0 0 10 10" refX="9" refY="5" markerWidth="6" markerHeight="6" orient="auto-start-reverse">
     <path d="M 0 0 L 10 5 L 0 10 z" fill="#475569"/>
   </marker>
  </defs>
<rect width="100%" height="100%" fill="#fff"/><text x="24" y="34" class="title">MBFR System Block Diagram</text><rect x="40" y="80" width="180" height="110" rx="10" class="box"/><text x="52" y="102" class="label">Pellet factory
& cryo storage</text><rect x="260" y="80" width="180" height="110" rx="10" class="box"/><text x="272" y="102" class="label">Pellet injector
(gated)</text><rect x="460" y="80" width="180" height="110" rx="10" class="box"/><text x="472" y="102" class="label">Maser pre‑heat
(170–240 GHz)</text><rect x="660" y="80" width="260" height="180" rx="10" class="box"/><text x="672" y="102" class="label">UV laser panels
(3ω DPSSL, 192–384 beams)</text><rect x="260" y="220" width="180" height="140" rx="10" class="box"/><text x="272" y="242" class="label">Fusion chamber
alpha coils + blanket</text><rect x="40" y="230" width="180" height="120" rx="10" class="box"/><text x="52" y="252" class="label">Detritiation unit
(getter + oxidizer)</text><rect x="520" y="320" width="180" height="120" rx="10" class="box"/><text x="532" y="342" class="label">Thermal buffer
(molten salt)</text><rect x="740" y="320" width="200" height="120" rx="10" class="box"/><text x="752" y="342" class="label">Power block
(sCO₂ or steam)</text><rect x="40" y="380" width="180" height="60" rx="10" class="box"/><text x="52" y="402" class="label">Tritium handling
& accounting</text><path d="M 220 135 L 260 135" class="pipe arrow"/><path d="M 440 135 L 460 135" class="pipe arrow"/><path d="M 640 135 L 660 135" class="pipe arrow"/><path d="M 560 190 L 350 240" class="pipe arrow"/><path d="M 350 290 L 520 380" class="pipe arrow"/><path d="M 700 380 L 740 380" class="pipe arrow"/><path d="M 240 180 L 120 260" class="pipe arrow"/><path d="M 220 120 L 120 120" class="pipe arrow"/><path d="M 120 260 L 120 120" class="pipe arrow"/><path d="M 120 410 L 240 260" class="pipe arrow"/><text x="24" y="496" class="note">Double‑wall HX with helium sweep sits between Thermal buffer and Power block (tritium interception + leak detection).</text></svg>