<svg xmlns="http://www.w3.org/2000/svg" width="1000" height="540" viewBox="0 0 1000 540" role="img" aria-label="MBFR System Block Diagram (v3a)">
  <defs>
    <marker id="arrow" viewBox="0 0 10 10" refX="9" refY="5" markerWidth="6" markerHeight="6" orient="auto-start-reverse">
      <path d="M 0 0 L 10 5 L 0 10 z" fill="#475569"/>
    </marker>
  </defs>
  <rect width="100%" height="100%" fill="#ffffff"/>
  <text x="24" y="32" font-family="Arial, sans-serif" font-weight="700" font-size="18" fill="#0f172a">MBFR System Block Diagram (v3a)</text>
<rect x="40" y="80" width="200" height="110" rx="10" fill="#F8FAFC" stroke="#CBD5E1"/><text x="52" y="102" font-family="Arial, sans-serif" font-weight="600" font-size="13" fill="#0f172a">Pellet factory &amp; cryo storage</text><rect x="270" y="80" width="200" height="110" rx="10" fill="#F8FAFC" stroke="#CBD5E1"/><text x="282" y="102" font-family="Arial, sans-serif" font-weight="600" font-size="13" fill="#0f172a">Pellet injector (gated)</text><rect x="500" y="80" width="200" height="110" rx="10" fill="#F8FAFC" stroke="#CBD5E1"/><text x="512" y="102" font-family="Arial, sans-serif" font-weight="600" font-size="13" fill="#0f172a">Maser pre-heat (170–240 GHz)</text><rect x="730" y="70" width="240" height="160" rx="10" fill="#F8FAFC" stroke="#CBD5E1"/><text x="742" y="92" font-family="Arial, sans-serif" font-weight="600" font-size="13" fill="#0f172a">UV laser panels (3ω DPSSL)
192–384 beams</text><rect x="270" y="220" width="200" height="140" rx="10" fill="#F8FAFC" stroke="#CBD5E1"/><text x="282" y="242" font-family="Arial, sans-serif" font-weight="600" font-size="13" fill="#0f172a">Fusion chamber
alpha coils + blanket</text><rect x="40" y="220" width="200" height="120" rx="10" fill="#F8FAFC" stroke="#CBD5E1"/><text x="52" y="242" font-family="Arial, sans-serif" font-weight="600" font-size="13" fill="#0f172a">Detritiation unit (DTU)
oxidizer → dryers → sieves → getters</text><rect x="520" y="320" width="200" height="120" rx="10" fill="#F8FAFC" stroke="#CBD5E1"/><text x="532" y="342" font-family="Arial, sans-serif" font-weight="600" font-size="13" fill="#0f172a">Thermal buffer (molten salt)
surge tanks</text><rect x="760" y="320" width="220" height="120" rx="10" fill="#F8FAFC" stroke="#CBD5E1"/><text x="772" y="342" font-family="Arial, sans-serif" font-weight="600" font-size="13" fill="#0f172a">Power block
sCO₂ Brayton or steam Rankine</text><rect x="40" y="370" width="200" height="70" rx="10" fill="#F8FAFC" stroke="#CBD5E1"/><text x="52" y="392" font-family="Arial, sans-serif" font-weight="600" font-size="13" fill="#0f172a">Tritium handling &amp; accounting</text><line x1="240" y1="135" x2="270" y2="135" stroke="#475569" stroke-width="3" marker-end="url(#arrow)"/><line x1="470" y1="135" x2="500" y2="135" stroke="#475569" stroke-width="3" marker-end="url(#arrow)"/><line x1="700" y1="135" x2="730" y2="135" stroke="#475569" stroke-width="3" marker-end="url(#arrow)"/><line x1="640" y1="190" x2="370" y2="250" stroke="#475569" stroke-width="3" marker-end="url(#arrow)"/><line x1="370" y1="300" x2="520" y2="370" stroke="#475569" stroke-width="3" marker-end="url(#arrow)"/><line x1="720" y1="380" x2="760" y2="380" stroke="#475569" stroke-width="3" marker-end="url(#arrow)"/><line x1="240" y1="260" x2="140" y2="260" stroke="#475569" stroke-width="3" marker-end="url(#arrow)"/><line x1="140" y1="260" x2="140" y2="120" stroke="#475569" stroke-width="3" marker-end="url(#arrow)"/><line x1="140" y1="410" x2="270" y2="260" stroke="#475569" stroke-width="3" marker-end="url(#arrow)"/><text x="24" y="520" font-family="Arial, sans-serif" font-weight="500" font-size="12" fill="#0f172a">Double-wall heat exchangers use a helium sweep between walls for leak detection and tritium interception.</text></svg>