<svg xmlns="http://www.w3.org/2000/svg" width="880" height="560" viewBox="0 0 880 560" role="img">
<style>
    .title{font:700 18px system-ui,Segoe UI,Arial}
    .label{font:600 13px system-ui,Segoe UI,Arial; fill:#0f172a}
    .legend{font:600 12px system-ui,Segoe UI,Arial; fill:#0f172a}
    .note{font:500 11px system-ui,Segoe UI,Arial; fill:#475569}
    .box{fill:#f8fafc; stroke:#cbd5e1}
    .pipe{fill:none; stroke:#475569; stroke-width:3}
    .arrow{marker-end:url(#arrow)}
  </style>
  <defs>
   <marker id="arrow" viewBox="0 0 10 10" refX="9" refY="5" markerWidth="6" markerHeight="6" orient="auto-start-reverse">
     <path d="M 0 0 L 10 5 L 0 10 z" fill="#475569"/>
   </marker>
  </defs>
<rect width="100%" height="100%" fill="#fff"/><text x="24" y="34" class="title">MBFR Chamber — cutaway (not to scale)</text><circle cx="360" cy="300" r="210" fill="#e2e8f0" stroke="#cbd5e1" stroke-width="6"/><circle cx="360" cy="300" r="160" fill="#fde68a" stroke="#f59e0b" stroke-width="6"/><circle cx="360" cy="300" r="115" fill="#94a3b8" stroke="#475569" stroke-width="6"/><circle cx="360" cy="300" r="70" fill="#f1f5f9" stroke="#64748b" stroke-width="6"/><circle cx="360" cy="300" r="8" fill="#f97316" stroke="#ea580c" stroke-width="2"/><line x1="360" y1="300" x2="471.1" y2="329.8" stroke="#ef4444" stroke-width="3"/><line x1="360" y1="300" x2="441.3" y2="381.3" stroke="#ef4444" stroke-width="3"/><line x1="360" y1="300" x2="389.8" y2="411.1" stroke="#ef4444" stroke-width="3"/><line x1="360" y1="300" x2="330.2" y2="411.1" stroke="#ef4444" stroke-width="3"/><line x1="360" y1="300" x2="278.7" y2="381.3" stroke="#ef4444" stroke-width="3"/><line x1="360" y1="300" x2="248.9" y2="329.8" stroke="#ef4444" stroke-width="3"/><line x1="360" y1="300" x2="248.9" y2="270.2" stroke="#ef4444" stroke-width="3"/><line x1="360" y1="300" x2="278.7" y2="218.7" stroke="#ef4444" stroke-width="3"/><line x1="360" y1="300" x2="330.2" y2="188.9" stroke="#ef4444" stroke-width="3"/><line x1="360" y1="300" x2="389.8" y2="188.9" stroke="#ef4444" stroke-width="3"/><line x1="360" y1="300" x2="441.3" y2="218.7" stroke="#ef4444" stroke-width="3"/><line x1="360" y1="300" x2="471.1" y2="270.2" stroke="#ef4444" stroke-width="3"/><path d="M 190 360 c 20 -30, 60 -30, 80 0 s 60 30, 80 0" fill="none" stroke="#a855f7" stroke-width="6"/><circle cx="190" cy="360" r="10" fill="#a855f7"/><path d="M 190 400 c 20 -30, 60 -30, 80 0 s 60 30, 80 0" fill="none" stroke="#a855f7" stroke-width="6"/><circle cx="190" cy="400" r="10" fill="#a855f7"/><rect x="336" y="70" width="48" height="70" rx="8" class="box"/><line x1="360" y1="140" x2="360" y2="280" class="pipe"/><circle cx="360" cy="280" r="6" fill="#0ea5e9"/><line x1="360" y1="40" x2="360" y2="220" stroke="#0ea5e9" stroke-width="4" class="arrow"/><rect x="620" y="180" width="160" height="200" rx="10" fill="#fee2e2" stroke="#ef4444"/><path d="M 520 300 C 580 300, 580 240, 620 240" class="pipe arrow"/><path d="M 620 360 C 580 360, 580 310, 520 310" class="pipe arrow"/><text x="342" y="62" class="label">Pellet</text><text x="322" y="80" class="label">injector</text><text x="368" y="180" class="label">Maser pre‑heat (170–240 GHz)</text><text x="335" y="310" class="label">Fusion micro‑burst</text><text x="215" y="170" class="label">UV laser panels</text><path d="M 215 175 L 270 210" class="pipe arrow"/><text x="165" y="348" class="label">Alpha‑capture coils & tubes</text><text x="340" y="443" class="label">First wall</text><text x="315" y="488" class="label">Moderator / blanket</text><text x="340" y="538" class="label">Bioshield</text><text x="660" y="170" class="label">Double‑wall HX & power block</text><text x="60" y="120" class="label">Laser panels (351 nm)</text><line x1="110" y1="130" x2="220" y2="180" class="pipe arrow"/></svg>