<svg xmlns="http://www.w3.org/2000/svg" width="820" height="480" viewBox="0 0 820 480" role="img">
<style>
    .title{font:700 18px system-ui,Segoe UI,Arial}
    .label{font:600 13px system-ui,Segoe UI,Arial; fill:#0f172a}
    .legend{font:600 12px system-ui,Segoe UI,Arial; fill:#0f172a}
    .note{font:500 11px system-ui,Segoe UI,Arial; fill:#475569}
    .box{fill:#f8fafc; stroke:#cbd5e1}
    .pipe{fill:none; stroke:#475569; stroke-width:3}
    .arrow{marker-end:url(#arrow)}
  </style>
  <defs>
   <marker id="arrow" viewBox="0 0 10 10" refX="9" refY="5" markerWidth="6" markerHeight="6" orient="auto-start-reverse">
     <path d="M 0 0 L 10 5 L 0 10 z" fill="#475569"/>
   </marker>
  </defs>
<rect width="100%" height="100%" fill="#fff"/><text x="24" y="34" class="title">UV Laser Panel Arrangement (quasi‑icosahedral)</text><circle cx="410" cy="260" r="10" fill="#f97316" stroke="#ea580c" stroke-width="2"/><circle cx="564.5" cy="301.4" r="28" fill="#e2e8f0" stroke="#94a3b8"/><text x="550.5" y="305.4" class="legend">Panel</text><line x1="564.5" y1="301.4" x2="410" y2="260" stroke="#ef4444" stroke-width="3"/><circle cx="523.1" cy="373.1" r="28" fill="#e2e8f0" stroke="#94a3b8"/><text x="509.1" y="377.1" class="legend">Panel</text><line x1="523.1" y1="373.1" x2="410" y2="260" stroke="#ef4444" stroke-width="3"/><circle cx="451.4" cy="414.5" r="28" fill="#e2e8f0" stroke="#94a3b8"/><text x="437.4" y="418.5" class="legend">Panel</text><line x1="451.4" y1="414.5" x2="410" y2="260" stroke="#ef4444" stroke-width="3"/><circle cx="368.6" cy="414.5" r="28" fill="#e2e8f0" stroke="#94a3b8"/><text x="354.6" y="418.5" class="legend">Panel</text><line x1="368.6" y1="414.5" x2="410" y2="260" stroke="#ef4444" stroke-width="3"/><circle cx="296.9" cy="373.1" r="28" fill="#e2e8f0" stroke="#94a3b8"/><text x="282.9" y="377.1" class="legend">Panel</text><line x1="296.9" y1="373.1" x2="410" y2="260" stroke="#ef4444" stroke-width="3"/><circle cx="255.5" cy="301.4" r="28" fill="#e2e8f0" stroke="#94a3b8"/><text x="241.5" y="305.4" class="legend">Panel</text><line x1="255.5" y1="301.4" x2="410" y2="260" stroke="#ef4444" stroke-width="3"/><circle cx="255.5" cy="218.6" r="28" fill="#e2e8f0" stroke="#94a3b8"/><text x="241.5" y="222.6" class="legend">Panel</text><line x1="255.5" y1="218.6" x2="410" y2="260" stroke="#ef4444" stroke-width="3"/><circle cx="296.9" cy="146.9" r="28" fill="#e2e8f0" stroke="#94a3b8"/><text x="282.9" y="150.9" class="legend">Panel</text><line x1="296.9" y1="146.9" x2="410" y2="260" stroke="#ef4444" stroke-width="3"/><circle cx="368.6" cy="105.5" r="28" fill="#e2e8f0" stroke="#94a3b8"/><text x="354.6" y="109.5" class="legend">Panel</text><line x1="368.6" y1="105.5" x2="410" y2="260" stroke="#ef4444" stroke-width="3"/><circle cx="451.4" cy="105.5" r="28" fill="#e2e8f0" stroke="#94a3b8"/><text x="437.4" y="109.5" class="legend">Panel</text><line x1="451.4" y1="105.5" x2="410" y2="260" stroke="#ef4444" stroke-width="3"/><circle cx="523.1" cy="146.9" r="28" fill="#e2e8f0" stroke="#94a3b8"/><text x="509.1" y="150.9" class="legend">Panel</text><line x1="523.1" y1="146.9" x2="410" y2="260" stroke="#ef4444" stroke-width="3"/><circle cx="564.5" cy="218.6" r="28" fill="#e2e8f0" stroke="#94a3b8"/><text x="550.5" y="222.6" class="legend">Panel</text><line x1="564.5" y1="218.6" x2="410" y2="260" stroke="#ef4444" stroke-width="3"/><text x="24" y="56" class="note">Typical configuration: 12 panels × 16–32 beamlets = 192–384 beams. Beam fluence kept below damage threshold via large clear apertures + gas/liquid protection.</text></svg>