<svg xmlns="http://www.w3.org/2000/svg" width="900" height="560" viewBox="0 0 900 560" role="img" aria-label="MBFR Chamber — cutaway (v3a)">
  <defs>
    <marker id="arrow" viewBox="0 0 10 10" refX="9" refY="5" markerWidth="6" markerHeight="6" orient="auto-start-reverse">
      <path d="M 0 0 L 10 5 L 0 10 z" fill="#475569"/>
    </marker>
  </defs>
  <rect width="100%" height="100%" fill="#ffffff"/>
  <text x="24" y="32" font-family="Arial, sans-serif" font-weight="700" font-size="18" fill="#0f172a">MBFR Chamber — cutaway (v3a)</text>
<circle cx="360" cy="310" r="220" fill="#E6EEF7" stroke="#C7D3E0" stroke-width="6"/><circle cx="360" cy="310" r="170" fill="#FDE68A" stroke="#F59E0B" stroke-width="6"/><circle cx="360" cy="310" r="120" fill="#B8C2CF" stroke="#475569" stroke-width="6"/><circle cx="360" cy="310" r="70" fill="#F4F7FA" stroke="#64748B" stroke-width="6"/><circle cx="360" cy="310" r="9" fill="#F97316" stroke="#EA580C" stroke-width="2"/><line x1="360" y1="310" x2="475.9" y2="341.1" stroke="#EF4444" stroke-width="3"/><line x1="360" y1="310" x2="444.9" y2="394.9" stroke="#EF4444" stroke-width="3"/><line x1="360" y1="310" x2="391.1" y2="425.9" stroke="#EF4444" stroke-width="3"/><line x1="360" y1="310" x2="328.9" y2="425.9" stroke="#EF4444" stroke-width="3"/><line x1="360" y1="310" x2="275.1" y2="394.9" stroke="#EF4444" stroke-width="3"/><line x1="360" y1="310" x2="244.1" y2="341.1" stroke="#EF4444" stroke-width="3"/><line x1="360" y1="310" x2="244.1" y2="278.9" stroke="#EF4444" stroke-width="3"/><line x1="360" y1="310" x2="275.1" y2="225.1" stroke="#EF4444" stroke-width="3"/><line x1="360" y1="310" x2="328.9" y2="194.1" stroke="#EF4444" stroke-width="3"/><line x1="360" y1="310" x2="391.1" y2="194.1" stroke="#EF4444" stroke-width="3"/><line x1="360" y1="310" x2="444.9" y2="225.1" stroke="#EF4444" stroke-width="3"/><line x1="360" y1="310" x2="475.9" y2="278.9" stroke="#EF4444" stroke-width="3"/><rect x="338" y="60" width="44" height="70" rx="8" fill="#F8FAFC" stroke="#CBD5E1"/><line x1="360" y1="130" x2="360" y2="285" stroke="#475569" stroke-width="3"/><circle cx="360" cy="285" r="6" fill="#0EA5E9"/><line x1="360" y1="40" x2="360" y2="220" stroke="#0EA5E9" stroke-width="4" marker-end="url(#arrow)"/><path d="M 170 370 c 30 -25, 70 -25, 100 0 s 70 25, 100 0" fill="none" stroke="#8B5CF6" stroke-width="6"/><circle cx="170" cy="370" r="9" fill="#8B5CF6"/><path d="M 170 410 c 30 -25, 70 -25, 100 0 s 70 25, 100 0" fill="none" stroke="#8B5CF6" stroke-width="6"/><circle cx="170" cy="410" r="9" fill="#8B5CF6"/><rect x="630" y="190" width="180" height="210" rx="10" fill="#FEE2E2" stroke="#EF4444"/><path d="M 530 310 C 590 310, 590 250, 630 250" fill="none" stroke="#475569" stroke-width="3" marker-end="url(#arrow)"/><path d="M 630 370 C 590 370, 590 320, 530 320" fill="none" stroke="#475569" stroke-width="3" marker-end="url(#arrow)"/><text x="320" y="60" font-family="Arial, sans-serif" font-weight="600" font-size="13" fill="#0f172a">Pellet</text><text x="320" y="76" font-family="Arial, sans-serif" font-weight="600" font-size="13" fill="#0f172a">injector</text><text x="372" y="190" font-family="Arial, sans-serif" font-weight="600" font-size="13" fill="#0f172a">Maser pre-heat (170–240 GHz)</text><text x="200" y="172" font-family="Arial, sans-serif" font-weight="600" font-size="13" fill="#0f172a">UV laser panels</text><line x1="210" y1="178" x2="262" y2="214" stroke="#475569" stroke-width="2" marker-end="url(#arrow)"/><text x="140" y="358" font-family="Arial, sans-serif" font-weight="600" font-size="13" fill="#0f172a">Alpha-capture</text><text x="140" y="374" font-family="Arial, sans-serif" font-weight="600" font-size="13" fill="#0f172a">coils &amp; tubes</text><text x="340" y="460" font-family="Arial, sans-serif" font-weight="600" font-size="13" fill="#0f172a">First wall</text><text x="310" y="512" font-family="Arial, sans-serif" font-weight="600" font-size="13" fill="#0f172a">Moderator/blanket</text><text x="340" y="562" font-family="Arial, sans-serif" font-weight="600" font-size="13" fill="#0f172a">Bioshield</text><text x="670" y="180" font-family="Arial, sans-serif" font-weight="600" font-size="13" fill="#0f172a">Double-wall HX &amp; power block</text><text x="330" y="322" font-family="Arial, sans-serif" font-weight="600" font-size="13" fill="#0f172a">Fusion micro-burst</text></svg>