<svg xmlns="http://www.w3.org/2000/svg" width="1000" height="560" viewBox="0 0 1000 560" role="img" aria-label="Heat &amp; Tritium Loops — simplified PFD (v3a)">
  <defs>
    <marker id="arrow" viewBox="0 0 10 10" refX="9" refY="5" markerWidth="6" markerHeight="6" orient="auto-start-reverse">
      <path d="M 0 0 L 10 5 L 0 10 z" fill="#475569"/>
    </marker>
  </defs>
  <rect width="100%" height="100%" fill="#ffffff"/>
  <text x="24" y="32" font-family="Arial, sans-serif" font-weight="700" font-size="18" fill="#0f172a">Heat &amp; Tritium Loops — simplified PFD (v3a)</text>
<rect x="70" y="100" width="280" height="170" rx="10" fill="#F8FAFC" stroke="#CBD5E1"/><text x="82" y="122" font-family="Arial, sans-serif" font-weight="600" font-size="13" fill="#0f172a">Fusion chamber +
blanket &amp; first wall</text><rect x="380" y="110" width="260" height="120" rx="10" fill="#F8FAFC" stroke="#CBD5E1"/><text x="392" y="132" font-family="Arial, sans-serif" font-weight="600" font-size="13" fill="#0f172a">Thermal buffer
(FLiBe / PbLi)</text><rect x="680" y="110" width="260" height="120" rx="10" fill="#F8FAFC" stroke="#CBD5E1"/><text x="692" y="132" font-family="Arial, sans-serif" font-weight="600" font-size="13" fill="#0f172a">Double-wall HX →
Power block (sCO₂/steam)</text><rect x="70" y="330" width="280" height="130" rx="10" fill="#F8FAFC" stroke="#CBD5E1"/><text x="82" y="352" font-family="Arial, sans-serif" font-weight="600" font-size="13" fill="#0f172a">Detritiation unit (DTU)
oxidizer → dryer → sieve → getters</text><rect x="380" y="330" width="260" height="130" rx="10" fill="#F8FAFC" stroke="#CBD5E1"/><text x="392" y="352" font-family="Arial, sans-serif" font-weight="600" font-size="13" fill="#0f172a">Tritium handling
(getter beds, storage)</text><rect x="680" y="330" width="260" height="130" rx="10" fill="#F8FAFC" stroke="#CBD5E1"/><text x="692" y="352" font-family="Arial, sans-serif" font-weight="600" font-size="13" fill="#0f172a">Pellet factory &amp;
cryo layering</text><path d="M 350 170 L 380 170" fill="none" stroke="#475569" stroke-width="3" marker-end="url(#arrow)"/><path d="M 640 170 L 680 170" fill="none" stroke="#475569" stroke-width="3" marker-end="url(#arrow)"/><path d="M 810 230 C 810 230, 810 330, 810 330" fill="none" stroke="#475569" stroke-width="3" marker-end="url(#arrow)"/><path d="M 810 330 L 810 450" fill="none" stroke="#475569" stroke-width="3" marker-end="url(#arrow)"/><path d="M 680 450 L 510 400" fill="none" stroke="#475569" stroke-width="3" marker-end="url(#arrow)"/><path d="M 510 400 L 210 400" fill="none" stroke="#475569" stroke-width="3" marker-end="url(#arrow)"/><path d="M 210 400 L 210 270" fill="none" stroke="#475569" stroke-width="3" marker-end="url(#arrow)"/><path d="M 210 270 L 210 210" fill="none" stroke="#475569" stroke-width="3" marker-end="url(#arrow)"/><path d="M 680 450 L 230 210" fill="none" stroke="#475569" stroke-width="3" marker-end="url(#arrow)"/><text x="24" y="528" font-family="Arial, sans-serif" font-weight="500" font-size="12" fill="#0f172a">Helium sweep gas runs between HX walls; permeated tritium goes to DTU. No routine releases; all loops closed and monitored.</text></svg>