<?xml version="1.0" encoding="utf-8" standalone="no"?>
<!DOCTYPE svg PUBLIC "-//W3C//DTD SVG 1.1//EN"
  "http://www.w3.org/Graphics/SVG/1.1/DTD/svg11.dtd">
<svg xmlns:xlink="http://www.w3.org/1999/xlink" width="734.4pt" height="446.4pt" viewBox="0 0 734.4 446.4" xmlns="http://www.w3.org/2000/svg" version="1.1">
 <metadata>
  <rdf:RDF xmlns:dc="http://purl.org/dc/elements/1.1/" xmlns:cc="http://creativecommons.org/ns#" xmlns:rdf="http://www.w3.org/1999/02/22-rdf-syntax-ns#">
   <cc:Work>
    <dc:type rdf:resource="http://purl.org/dc/dcmitype/StillImage"/>
    <dc:date>2025-08-11T10:08:59.453600</dc:date>
    <dc:format>image/svg+xml</dc:format>
    <dc:creator>
     <cc:Agent>
      <dc:title>Matplotlib v3.6.3, https://matplotlib.org/</dc:title>
     </cc:Agent>
    </dc:creator>
   </cc:Work>
  </rdf:RDF>
 </metadata>
 <defs>
  <style type="text/css">*{stroke-linejoin: round; stroke-linecap: butt}</style>
 </defs>
 <g id="figure_1">
  <g id="patch_1">
   <path d="M 0 446.4 
L 734.4 446.4 
L 734.4 0 
L 0 0 
z
" style="fill: #ffffff"/>
  </g>
  <g id="axes_1">
   <g id="patch_2">
    <path d="M 5788.8 145.44 
L -5572.8 145.44 
Q 187.2 145.44 187.2 -3310.56 
L 187.2 3532.32 
Q 187.2 76.32 -5572.8 76.32 
L 5788.8 76.32 
Q 28.8 76.32 28.8 3532.32 
L 28.8 -3310.56 
Q 28.8 145.44 5788.8 145.44 
z
" clip-path="url(#p9dee57aa75)" style="fill: #f2f2f2; stroke: #000000; stroke-linejoin: miter"/>
   </g>
   <g id="patch_3">
    <path d="M 5968.8 145.44 
L -5392.8 145.44 
Q 367.2 145.44 367.2 -3310.56 
L 367.2 3532.32 
Q 367.2 76.32 -5392.8 76.32 
L 5968.8 76.32 
Q 208.8 76.32 208.8 3532.32 
L 208.8 -3310.56 
Q 208.8 145.44 5968.8 145.44 
z
" clip-path="url(#p9dee57aa75)" style="fill: #f2f2f2; stroke: #000000; stroke-linejoin: miter"/>
   </g>
   <g id="patch_4">
    <path d="M 6148.8 145.44 
L -5212.8 145.44 
Q 547.2 145.44 547.2 -3310.56 
L 547.2 3532.32 
Q 547.2 76.32 -5212.8 76.32 
L 6148.8 76.32 
Q 388.8 76.32 388.8 3532.32 
L 388.8 -3310.56 
Q 388.8 145.44 6148.8 145.44 
z
" clip-path="url(#p9dee57aa75)" style="fill: #f2f2f2; stroke: #000000; stroke-linejoin: miter"/>
   </g>
   <g id="patch_5">
    <path d="M 6328.8 145.44 
L -5032.8 145.44 
Q 727.2 145.44 727.2 -3310.56 
L 727.2 3532.32 
Q 727.2 76.32 -5032.8 76.32 
L 6328.8 76.32 
Q 568.8 76.32 568.8 3532.32 
L 568.8 -3310.56 
Q 568.8 145.44 6328.8 145.44 
z
" clip-path="url(#p9dee57aa75)" style="fill: #f2f2f2; stroke: #000000; stroke-linejoin: miter"/>
   </g>
   <g id="patch_6">
    <path d="M 174.802588 110.88 
Q 198.001384 110.88 219.858539 110.88 
" clip-path="url(#p9dee57aa75)" style="fill: none; stroke: #000000; stroke-width: 1.2; stroke-linecap: round"/>
    <path d="M 215.058539 108.48 
L 219.858539 110.88 
L 215.058539 113.28 
" clip-path="url(#p9dee57aa75)" style="fill: none; stroke: #000000; stroke-width: 1.2; stroke-linecap: round"/>
   </g>
   <g id="patch_7">
    <path d="M 354.802588 110.88 
Q 378.001384 110.88 399.858539 110.88 
" clip-path="url(#p9dee57aa75)" style="fill: none; stroke: #000000; stroke-width: 1.2; stroke-linecap: round"/>
    <path d="M 395.058539 108.48 
L 399.858539 110.88 
L 395.058539 113.28 
" clip-path="url(#p9dee57aa75)" style="fill: none; stroke: #000000; stroke-width: 1.2; stroke-linecap: round"/>
   </g>
   <g id="patch_8">
    <path d="M 534.802588 110.88 
Q 558.001384 110.88 579.858539 110.88 
" clip-path="url(#p9dee57aa75)" style="fill: none; stroke: #000000; stroke-width: 1.2; stroke-linecap: round"/>
    <path d="M 575.058539 108.48 
L 579.858539 110.88 
L 575.058539 113.28 
" clip-path="url(#p9dee57aa75)" style="fill: none; stroke: #000000; stroke-width: 1.2; stroke-linecap: round"/>
   </g>
   <g id="patch_9">
    <path d="M 6004.8 253.44 
L -5284.8 253.44 
Q 475.2 253.44 475.2 -3202.56 
L 475.2 3623.04 
Q 475.2 167.04 -5284.8 167.04 
L 6004.8 167.04 
Q 244.8 167.04 244.8 3623.04 
L 244.8 -3202.56 
Q 244.8 253.44 6004.8 253.44 
z
" clip-path="url(#p9dee57aa75)" style="fill: #f2f2f2; stroke: #000000; stroke-linejoin: miter"/>
   </g>
   <g id="patch_10">
    <path d="M 5788.8 253.44 
L -5529.6 253.44 
Q 230.4 253.44 230.4 -3202.56 
L 230.4 3623.04 
Q 230.4 167.04 -5529.6 167.04 
L 5788.8 167.04 
Q 28.8 167.04 28.8 3623.04 
L 28.8 -3202.56 
Q 28.8 253.44 5788.8 253.44 
z
" clip-path="url(#p9dee57aa75)" style="fill: #f2f2f2; stroke: #000000; stroke-linejoin: miter"/>
   </g>
   <g id="patch_11">
    <path d="M 6220.8 253.44 
L -5068.8 253.44 
Q 691.2 253.44 691.2 -3202.56 
L 691.2 3623.04 
Q 691.2 167.04 -5068.8 167.04 
L 6220.8 167.04 
Q 460.8 167.04 460.8 3623.04 
L 460.8 -3202.56 
Q 460.8 253.44 6220.8 253.44 
z
" clip-path="url(#p9dee57aa75)" style="fill: #f2f2f2; stroke: #000000; stroke-linejoin: miter"/>
   </g>
   <g id="patch_12">
    <path d="M 653.732886 138.160415 
Q 615.600645 173.519402 578.452186 207.966155 
" clip-path="url(#p9dee57aa75)" style="fill: none; stroke: #000000; stroke-width: 1.2; stroke-linecap: round"/>
    <path d="M 583.603728 206.462288 
L 578.452186 207.966155 
L 580.340018 202.942601 
" clip-path="url(#p9dee57aa75)" style="fill: none; stroke: #000000; stroke-width: 1.2; stroke-linecap: round"/>
   </g>
   <g id="patch_13">
    <path d="M 466.426099 138.034907 
Q 421.200809 173.519365 377.03104 208.175645 
" clip-path="url(#p9dee57aa75)" style="fill: none; stroke: #000000; stroke-width: 1.2; stroke-linecap: round"/>
    <path d="M 382.288872 207.10084 
L 377.03104 208.175645 
L 379.325895 203.324497 
" clip-path="url(#p9dee57aa75)" style="fill: none; stroke: #000000; stroke-width: 1.2; stroke-linecap: round"/>
   </g>
   <g id="patch_14">
    <path d="M 257.19873 210.24 
Q 237.598907 210.24 219.340725 210.24 
" clip-path="url(#p9dee57aa75)" style="fill: none; stroke: #000000; stroke-width: 1.2; stroke-linecap: round"/>
    <path d="M 224.140725 212.64 
L 219.340725 210.24 
L 224.140725 207.84 
" clip-path="url(#p9dee57aa75)" style="fill: none; stroke: #000000; stroke-width: 1.2; stroke-linecap: round"/>
   </g>
   <g id="patch_15">
    <path d="M 462.800391 210.24 
Q 467.99969 210.24 471.857348 210.24 
" clip-path="url(#p9dee57aa75)" style="fill: none; stroke: #000000; stroke-width: 1.2; stroke-linecap: round"/>
    <path d="M 467.057348 207.84 
L 471.857348 210.24 
L 467.057348 212.64 
" clip-path="url(#p9dee57aa75)" style="fill: none; stroke: #000000; stroke-width: 1.2; stroke-linecap: round"/>
   </g>
   <g id="patch_16">
    <path d="M 5824.8 361.44 
L -5464.8 361.44 
Q 295.2 361.44 295.2 -3094.56 
L 295.2 3739.68 
Q 295.2 283.68 -5464.8 283.68 
L 5824.8 283.68 
Q 64.8 283.68 64.8 3739.68 
L 64.8 -3094.56 
Q 64.8 361.44 5824.8 361.44 
z
" clip-path="url(#p9dee57aa75)" style="fill: #f2f2f2; stroke: #000000; stroke-linejoin: miter"/>
   </g>
   <g id="patch_17">
    <path d="M 6055.2 361.44 
L -5277.6 361.44 
Q 482.4 361.44 482.4 -3094.56 
L 482.4 3739.68 
Q 482.4 283.68 -5277.6 283.68 
L 6055.2 283.68 
Q 295.2 283.68 295.2 3739.68 
L 295.2 -3094.56 
Q 295.2 361.44 6055.2 361.44 
z
" clip-path="url(#p9dee57aa75)" style="fill: #f2f2f2; stroke: #000000; stroke-linejoin: miter"/>
   </g>
   <g id="patch_18">
    <path d="M 6242.4 361.44 
L -5068.8 361.44 
Q 691.2 361.44 691.2 -3094.56 
L 691.2 3739.68 
Q 691.2 283.68 -5068.8 283.68 
L 6242.4 283.68 
Q 482.4 283.68 482.4 3739.68 
L 482.4 -3094.56 
Q 482.4 361.44 6242.4 361.44 
z
" clip-path="url(#p9dee57aa75)" style="fill: #f2f2f2; stroke: #000000; stroke-linejoin: miter"/>
   </g>
   <g id="patch_19">
    <path d="M 5824.8 439.2 
L -5414.4 439.2 
Q 345.6 439.2 345.6 -3016.8 
L 345.6 3817.44 
Q 345.6 361.44 -5414.4 361.44 
L 5824.8 361.44 
Q 64.8 361.44 64.8 3817.44 
L 64.8 -3016.8 
Q 64.8 439.2 5824.8 439.2 
z
" clip-path="url(#p9dee57aa75)" style="fill: #f2f2f2; stroke: #000000; stroke-linejoin: miter"/>
   </g>
   <g id="patch_20">
    <path d="M 6148.8 439.2 
L -5068.8 439.2 
Q 691.2 439.2 691.2 -3016.8 
L 691.2 3817.44 
Q 691.2 361.44 -5068.8 361.44 
L 6148.8 361.44 
Q 388.8 361.44 388.8 3817.44 
L 388.8 -3016.8 
Q 388.8 439.2 6148.8 439.2 
z
" clip-path="url(#p9dee57aa75)" style="fill: #f2f2f2; stroke: #000000; stroke-linejoin: miter"/>
   </g>
   <g id="patch_21">
    <path d="M 574.07547 210.785867 
Q 377.99833 266.400474 183.211916 321.648984 
" clip-path="url(#p9dee57aa75)" style="fill: none; stroke: #000000; stroke-width: 1.2; stroke-linecap: round"/>
    <path d="M 188.484651 322.648117 
L 183.211916 321.648984 
L 187.174863 318.030276 
" clip-path="url(#p9dee57aa75)" style="fill: none; stroke: #000000; stroke-width: 1.2; stroke-linecap: round"/>
   </g>
   <g id="patch_22">
    <path d="M 181.997314 322.56 
Q 244.799814 322.56 306.260673 322.56 
" clip-path="url(#p9dee57aa75)" style="fill: none; stroke: #000000; stroke-width: 1.2; stroke-linecap: round"/>
    <path d="M 301.460673 320.16 
L 306.260673 322.56 
L 301.460673 324.96 
" clip-path="url(#p9dee57aa75)" style="fill: none; stroke: #000000; stroke-width: 1.2; stroke-linecap: round"/>
   </g>
   <g id="patch_23">
    <path d="M 470.000391 322.56 
Q 482.400771 322.56 493.459511 322.56 
" clip-path="url(#p9dee57aa75)" style="fill: none; stroke: #000000; stroke-width: 1.2; stroke-linecap: round"/>
    <path d="M 488.659511 320.16 
L 493.459511 322.56 
L 488.659511 324.96 
" clip-path="url(#p9dee57aa75)" style="fill: none; stroke: #000000; stroke-width: 1.2; stroke-linecap: round"/>
   </g>
   <g id="patch_24">
    <path d="M 180 324.558105 
Q 180 361.437927 180 396.976107 
" clip-path="url(#p9dee57aa75)" style="fill: none; stroke: #000000; stroke-width: 1.2; stroke-linecap: round"/>
    <path d="M 182.4 392.176107 
L 180 396.976107 
L 177.6 392.176107 
" clip-path="url(#p9dee57aa75)" style="fill: none; stroke: #000000; stroke-width: 1.2; stroke-linecap: round"/>
   </g>
   <g id="patch_25">
    <path d="M 446.4 398.321631 
Q 446.4 376.559657 446.4 356.139325 
" clip-path="url(#p9dee57aa75)" style="fill: none; stroke: #000000; stroke-width: 1.2; stroke-linecap: round"/>
    <path d="M 444 360.939325 
L 446.4 356.139325 
L 448.8 360.939325 
" clip-path="url(#p9dee57aa75)" style="fill: none; stroke: #000000; stroke-width: 1.2; stroke-linecap: round"/>
   </g>
   <g id="text_1">
    <!-- Target Factory -->
    <g style="fill: #333333" transform="translate(72.671875 108.040469) scale(0.1 -0.1)">
     <defs>
      <path id="DejaVuSans-54" d="M -19 4666 
L 3928 4666 
L 3928 4134 
L 2272 4134 
L 2272 0 
L 1638 0 
L 1638 4134 
L -19 4134 
L -19 4666 
z
" transform="scale(0.015625)"/>
      <path id="DejaVuSans-61" d="M 2194 1759 
Q 1497 1759 1228 1600 
Q 959 1441 959 1056 
Q 959 750 1161 570 
Q 1363 391 1709 391 
Q 2188 391 2477 730 
Q 2766 1069 2766 1631 
L 2766 1759 
L 2194 1759 
z
M 3341 1997 
L 3341 0 
L 2766 0 
L 2766 531 
Q 2569 213 2275 61 
Q 1981 -91 1556 -91 
Q 1019 -91 701 211 
Q 384 513 384 1019 
Q 384 1609 779 1909 
Q 1175 2209 1959 2209 
L 2766 2209 
L 2766 2266 
Q 2766 2663 2505 2880 
Q 2244 3097 1772 3097 
Q 1472 3097 1187 3025 
Q 903 2953 641 2809 
L 641 3341 
Q 956 3463 1253 3523 
Q 1550 3584 1831 3584 
Q 2591 3584 2966 3190 
Q 3341 2797 3341 1997 
z
" transform="scale(0.015625)"/>
      <path id="DejaVuSans-72" d="M 2631 2963 
Q 2534 3019 2420 3045 
Q 2306 3072 2169 3072 
Q 1681 3072 1420 2755 
Q 1159 2438 1159 1844 
L 1159 0 
L 581 0 
L 581 3500 
L 1159 3500 
L 1159 2956 
Q 1341 3275 1631 3429 
Q 1922 3584 2338 3584 
Q 2397 3584 2469 3576 
Q 2541 3569 2628 3553 
L 2631 2963 
z
" transform="scale(0.015625)"/>
      <path id="DejaVuSans-67" d="M 2906 1791 
Q 2906 2416 2648 2759 
Q 2391 3103 1925 3103 
Q 1463 3103 1205 2759 
Q 947 2416 947 1791 
Q 947 1169 1205 825 
Q 1463 481 1925 481 
Q 2391 481 2648 825 
Q 2906 1169 2906 1791 
z
M 3481 434 
Q 3481 -459 3084 -895 
Q 2688 -1331 1869 -1331 
Q 1566 -1331 1297 -1286 
Q 1028 -1241 775 -1147 
L 775 -588 
Q 1028 -725 1275 -790 
Q 1522 -856 1778 -856 
Q 2344 -856 2625 -561 
Q 2906 -266 2906 331 
L 2906 616 
Q 2728 306 2450 153 
Q 2172 0 1784 0 
Q 1141 0 747 490 
Q 353 981 353 1791 
Q 353 2603 747 3093 
Q 1141 3584 1784 3584 
Q 2172 3584 2450 3431 
Q 2728 3278 2906 2969 
L 2906 3500 
L 3481 3500 
L 3481 434 
z
" transform="scale(0.015625)"/>
      <path id="DejaVuSans-65" d="M 3597 1894 
L 3597 1613 
L 953 1613 
Q 991 1019 1311 708 
Q 1631 397 2203 397 
Q 2534 397 2845 478 
Q 3156 559 3463 722 
L 3463 178 
Q 3153 47 2828 -22 
Q 2503 -91 2169 -91 
Q 1331 -91 842 396 
Q 353 884 353 1716 
Q 353 2575 817 3079 
Q 1281 3584 2069 3584 
Q 2775 3584 3186 3129 
Q 3597 2675 3597 1894 
z
M 3022 2063 
Q 3016 2534 2758 2815 
Q 2500 3097 2075 3097 
Q 1594 3097 1305 2825 
Q 1016 2553 972 2059 
L 3022 2063 
z
" transform="scale(0.015625)"/>
      <path id="DejaVuSans-74" d="M 1172 4494 
L 1172 3500 
L 2356 3500 
L 2356 3053 
L 1172 3053 
L 1172 1153 
Q 1172 725 1289 603 
Q 1406 481 1766 481 
L 2356 481 
L 2356 0 
L 1766 0 
Q 1100 0 847 248 
Q 594 497 594 1153 
L 594 3053 
L 172 3053 
L 172 3500 
L 594 3500 
L 594 4494 
L 1172 4494 
z
" transform="scale(0.015625)"/>
      <path id="DejaVuSans-20" transform="scale(0.015625)"/>
      <path id="DejaVuSans-46" d="M 628 4666 
L 3309 4666 
L 3309 4134 
L 1259 4134 
L 1259 2759 
L 3109 2759 
L 3109 2228 
L 1259 2228 
L 1259 0 
L 628 0 
L 628 4666 
z
" transform="scale(0.015625)"/>
      <path id="DejaVuSans-63" d="M 3122 3366 
L 3122 2828 
Q 2878 2963 2633 3030 
Q 2388 3097 2138 3097 
Q 1578 3097 1268 2742 
Q 959 2388 959 1747 
Q 959 1106 1268 751 
Q 1578 397 2138 397 
Q 2388 397 2633 464 
Q 2878 531 3122 666 
L 3122 134 
Q 2881 22 2623 -34 
Q 2366 -91 2075 -91 
Q 1284 -91 818 406 
Q 353 903 353 1747 
Q 353 2603 823 3093 
Q 1294 3584 2113 3584 
Q 2378 3584 2631 3529 
Q 2884 3475 3122 3366 
z
" transform="scale(0.015625)"/>
      <path id="DejaVuSans-6f" d="M 1959 3097 
Q 1497 3097 1228 2736 
Q 959 2375 959 1747 
Q 959 1119 1226 758 
Q 1494 397 1959 397 
Q 2419 397 2687 759 
Q 2956 1122 2956 1747 
Q 2956 2369 2687 2733 
Q 2419 3097 1959 3097 
z
M 1959 3584 
Q 2709 3584 3137 3096 
Q 3566 2609 3566 1747 
Q 3566 888 3137 398 
Q 2709 -91 1959 -91 
Q 1206 -91 779 398 
Q 353 888 353 1747 
Q 353 2609 779 3096 
Q 1206 3584 1959 3584 
z
" transform="scale(0.015625)"/>
      <path id="DejaVuSans-79" d="M 2059 -325 
Q 1816 -950 1584 -1140 
Q 1353 -1331 966 -1331 
L 506 -1331 
L 506 -850 
L 844 -850 
Q 1081 -850 1212 -737 
Q 1344 -625 1503 -206 
L 1606 56 
L 191 3500 
L 800 3500 
L 1894 763 
L 2988 3500 
L 3597 3500 
L 2059 -325 
z
" transform="scale(0.015625)"/>
     </defs>
     <use xlink:href="#DejaVuSans-54"/>
     <use xlink:href="#DejaVuSans-61" x="44.583984"/>
     <use xlink:href="#DejaVuSans-72" x="105.863281"/>
     <use xlink:href="#DejaVuSans-67" x="145.226562"/>
     <use xlink:href="#DejaVuSans-65" x="208.703125"/>
     <use xlink:href="#DejaVuSans-74" x="270.226562"/>
     <use xlink:href="#DejaVuSans-20" x="309.435547"/>
     <use xlink:href="#DejaVuSans-46" x="341.222656"/>
     <use xlink:href="#DejaVuSans-61" x="389.617188"/>
     <use xlink:href="#DejaVuSans-63" x="450.896484"/>
     <use xlink:href="#DejaVuSans-74" x="505.876953"/>
     <use xlink:href="#DejaVuSans-6f" x="545.085938"/>
     <use xlink:href="#DejaVuSans-72" x="606.267578"/>
     <use xlink:href="#DejaVuSans-79" x="647.380859"/>
    </g>
    <!-- (D/T pellets) -->
    <g style="fill: #333333" transform="translate(77.250781 119.238281) scale(0.1 -0.1)">
     <defs>
      <path id="DejaVuSans-28" d="M 1984 4856 
Q 1566 4138 1362 3434 
Q 1159 2731 1159 2009 
Q 1159 1288 1364 580 
Q 1569 -128 1984 -844 
L 1484 -844 
Q 1016 -109 783 600 
Q 550 1309 550 2009 
Q 550 2706 781 3412 
Q 1013 4119 1484 4856 
L 1984 4856 
z
" transform="scale(0.015625)"/>
      <path id="DejaVuSans-44" d="M 1259 4147 
L 1259 519 
L 2022 519 
Q 2988 519 3436 956 
Q 3884 1394 3884 2338 
Q 3884 3275 3436 3711 
Q 2988 4147 2022 4147 
L 1259 4147 
z
M 628 4666 
L 1925 4666 
Q 3281 4666 3915 4102 
Q 4550 3538 4550 2338 
Q 4550 1131 3912 565 
Q 3275 0 1925 0 
L 628 0 
L 628 4666 
z
" transform="scale(0.015625)"/>
      <path id="DejaVuSans-2f" d="M 1625 4666 
L 2156 4666 
L 531 -594 
L 0 -594 
L 1625 4666 
z
" transform="scale(0.015625)"/>
      <path id="DejaVuSans-70" d="M 1159 525 
L 1159 -1331 
L 581 -1331 
L 581 3500 
L 1159 3500 
L 1159 2969 
Q 1341 3281 1617 3432 
Q 1894 3584 2278 3584 
Q 2916 3584 3314 3078 
Q 3713 2572 3713 1747 
Q 3713 922 3314 415 
Q 2916 -91 2278 -91 
Q 1894 -91 1617 61 
Q 1341 213 1159 525 
z
M 3116 1747 
Q 3116 2381 2855 2742 
Q 2594 3103 2138 3103 
Q 1681 3103 1420 2742 
Q 1159 2381 1159 1747 
Q 1159 1113 1420 752 
Q 1681 391 2138 391 
Q 2594 391 2855 752 
Q 3116 1113 3116 1747 
z
" transform="scale(0.015625)"/>
      <path id="DejaVuSans-6c" d="M 603 4863 
L 1178 4863 
L 1178 0 
L 603 0 
L 603 4863 
z
" transform="scale(0.015625)"/>
      <path id="DejaVuSans-73" d="M 2834 3397 
L 2834 2853 
Q 2591 2978 2328 3040 
Q 2066 3103 1784 3103 
Q 1356 3103 1142 2972 
Q 928 2841 928 2578 
Q 928 2378 1081 2264 
Q 1234 2150 1697 2047 
L 1894 2003 
Q 2506 1872 2764 1633 
Q 3022 1394 3022 966 
Q 3022 478 2636 193 
Q 2250 -91 1575 -91 
Q 1294 -91 989 -36 
Q 684 19 347 128 
L 347 722 
Q 666 556 975 473 
Q 1284 391 1588 391 
Q 1994 391 2212 530 
Q 2431 669 2431 922 
Q 2431 1156 2273 1281 
Q 2116 1406 1581 1522 
L 1381 1569 
Q 847 1681 609 1914 
Q 372 2147 372 2553 
Q 372 3047 722 3315 
Q 1072 3584 1716 3584 
Q 2034 3584 2315 3537 
Q 2597 3491 2834 3397 
z
" transform="scale(0.015625)"/>
      <path id="DejaVuSans-29" d="M 513 4856 
L 1013 4856 
Q 1481 4119 1714 3412 
Q 1947 2706 1947 2009 
Q 1947 1309 1714 600 
Q 1481 -109 1013 -844 
L 513 -844 
Q 928 -128 1133 580 
Q 1338 1288 1338 2009 
Q 1338 2731 1133 3434 
Q 928 4138 513 4856 
z
" transform="scale(0.015625)"/>
     </defs>
     <use xlink:href="#DejaVuSans-28"/>
     <use xlink:href="#DejaVuSans-44" x="39.013672"/>
     <use xlink:href="#DejaVuSans-2f" x="116.015625"/>
     <use xlink:href="#DejaVuSans-54" x="149.707031"/>
     <use xlink:href="#DejaVuSans-20" x="210.791016"/>
     <use xlink:href="#DejaVuSans-70" x="242.578125"/>
     <use xlink:href="#DejaVuSans-65" x="306.054688"/>
     <use xlink:href="#DejaVuSans-6c" x="367.578125"/>
     <use xlink:href="#DejaVuSans-6c" x="395.361328"/>
     <use xlink:href="#DejaVuSans-65" x="423.144531"/>
     <use xlink:href="#DejaVuSans-74" x="484.667969"/>
     <use xlink:href="#DejaVuSans-73" x="523.876953"/>
     <use xlink:href="#DejaVuSans-29" x="575.976562"/>
    </g>
   </g>
   <g id="text_2">
    <!-- Pellet Injector -->
    <g style="fill: #333333" transform="translate(253.752344 113.639375) scale(0.1 -0.1)">
     <defs>
      <path id="DejaVuSans-50" d="M 1259 4147 
L 1259 2394 
L 2053 2394 
Q 2494 2394 2734 2622 
Q 2975 2850 2975 3272 
Q 2975 3691 2734 3919 
Q 2494 4147 2053 4147 
L 1259 4147 
z
M 628 4666 
L 2053 4666 
Q 2838 4666 3239 4311 
Q 3641 3956 3641 3272 
Q 3641 2581 3239 2228 
Q 2838 1875 2053 1875 
L 1259 1875 
L 1259 0 
L 628 0 
L 628 4666 
z
" transform="scale(0.015625)"/>
      <path id="DejaVuSans-49" d="M 628 4666 
L 1259 4666 
L 1259 0 
L 628 0 
L 628 4666 
z
" transform="scale(0.015625)"/>
      <path id="DejaVuSans-6e" d="M 3513 2113 
L 3513 0 
L 2938 0 
L 2938 2094 
Q 2938 2591 2744 2837 
Q 2550 3084 2163 3084 
Q 1697 3084 1428 2787 
Q 1159 2491 1159 1978 
L 1159 0 
L 581 0 
L 581 3500 
L 1159 3500 
L 1159 2956 
Q 1366 3272 1645 3428 
Q 1925 3584 2291 3584 
Q 2894 3584 3203 3211 
Q 3513 2838 3513 2113 
z
" transform="scale(0.015625)"/>
      <path id="DejaVuSans-6a" d="M 603 3500 
L 1178 3500 
L 1178 -63 
Q 1178 -731 923 -1031 
Q 669 -1331 103 -1331 
L -116 -1331 
L -116 -844 
L 38 -844 
Q 366 -844 484 -692 
Q 603 -541 603 -63 
L 603 3500 
z
M 603 4863 
L 1178 4863 
L 1178 4134 
L 603 4134 
L 603 4863 
z
" transform="scale(0.015625)"/>
     </defs>
     <use xlink:href="#DejaVuSans-50"/>
     <use xlink:href="#DejaVuSans-65" x="56.677734"/>
     <use xlink:href="#DejaVuSans-6c" x="118.201172"/>
     <use xlink:href="#DejaVuSans-6c" x="145.984375"/>
     <use xlink:href="#DejaVuSans-65" x="173.767578"/>
     <use xlink:href="#DejaVuSans-74" x="235.291016"/>
     <use xlink:href="#DejaVuSans-20" x="274.5"/>
     <use xlink:href="#DejaVuSans-49" x="306.287109"/>
     <use xlink:href="#DejaVuSans-6e" x="335.779297"/>
     <use xlink:href="#DejaVuSans-6a" x="399.158203"/>
     <use xlink:href="#DejaVuSans-65" x="426.941406"/>
     <use xlink:href="#DejaVuSans-63" x="488.464844"/>
     <use xlink:href="#DejaVuSans-74" x="543.445312"/>
     <use xlink:href="#DejaVuSans-6f" x="582.654297"/>
     <use xlink:href="#DejaVuSans-72" x="643.835938"/>
    </g>
   </g>
   <g id="text_3">
    <!-- Maser (mm‑wave) -->
    <g style="fill: #333333" transform="translate(422.660937 108.040469) scale(0.1 -0.1)">
     <defs>
      <path id="DejaVuSans-4d" d="M 628 4666 
L 1569 4666 
L 2759 1491 
L 3956 4666 
L 4897 4666 
L 4897 0 
L 4281 0 
L 4281 4097 
L 3078 897 
L 2444 897 
L 1241 4097 
L 1241 0 
L 628 0 
L 628 4666 
z
" transform="scale(0.015625)"/>
      <path id="DejaVuSans-6d" d="M 3328 2828 
Q 3544 3216 3844 3400 
Q 4144 3584 4550 3584 
Q 5097 3584 5394 3201 
Q 5691 2819 5691 2113 
L 5691 0 
L 5113 0 
L 5113 2094 
Q 5113 2597 4934 2840 
Q 4756 3084 4391 3084 
Q 3944 3084 3684 2787 
Q 3425 2491 3425 1978 
L 3425 0 
L 2847 0 
L 2847 2094 
Q 2847 2600 2669 2842 
Q 2491 3084 2119 3084 
Q 1678 3084 1418 2786 
Q 1159 2488 1159 1978 
L 1159 0 
L 581 0 
L 581 3500 
L 1159 3500 
L 1159 2956 
Q 1356 3278 1631 3431 
Q 1906 3584 2284 3584 
Q 2666 3584 2933 3390 
Q 3200 3197 3328 2828 
z
" transform="scale(0.015625)"/>
      <path id="DejaVuSans-2011" d="M 313 2009 
L 1997 2009 
L 1997 1497 
L 313 1497 
L 313 2009 
z
" transform="scale(0.015625)"/>
      <path id="DejaVuSans-77" d="M 269 3500 
L 844 3500 
L 1563 769 
L 2278 3500 
L 2956 3500 
L 3675 769 
L 4391 3500 
L 4966 3500 
L 4050 0 
L 3372 0 
L 2619 2869 
L 1863 0 
L 1184 0 
L 269 3500 
z
" transform="scale(0.015625)"/>
      <path id="DejaVuSans-76" d="M 191 3500 
L 800 3500 
L 1894 563 
L 2988 3500 
L 3597 3500 
L 2284 0 
L 1503 0 
L 191 3500 
z
" transform="scale(0.015625)"/>
     </defs>
     <use xlink:href="#DejaVuSans-4d"/>
     <use xlink:href="#DejaVuSans-61" x="86.279297"/>
     <use xlink:href="#DejaVuSans-73" x="147.558594"/>
     <use xlink:href="#DejaVuSans-65" x="199.658203"/>
     <use xlink:href="#DejaVuSans-72" x="261.181641"/>
     <use xlink:href="#DejaVuSans-20" x="302.294922"/>
     <use xlink:href="#DejaVuSans-28" x="334.082031"/>
     <use xlink:href="#DejaVuSans-6d" x="373.095703"/>
     <use xlink:href="#DejaVuSans-6d" x="470.507812"/>
     <use xlink:href="#DejaVuSans-2011" x="567.919922"/>
     <use xlink:href="#DejaVuSans-77" x="604.003906"/>
     <use xlink:href="#DejaVuSans-61" x="685.791016"/>
     <use xlink:href="#DejaVuSans-76" x="747.070312"/>
     <use xlink:href="#DejaVuSans-65" x="806.25"/>
     <use xlink:href="#DejaVuSans-29" x="867.773438"/>
    </g>
    <!-- Pre‑heat -->
    <g style="fill: #333333" transform="translate(446.979688 119.238281) scale(0.1 -0.1)">
     <defs>
      <path id="DejaVuSans-68" d="M 3513 2113 
L 3513 0 
L 2938 0 
L 2938 2094 
Q 2938 2591 2744 2837 
Q 2550 3084 2163 3084 
Q 1697 3084 1428 2787 
Q 1159 2491 1159 1978 
L 1159 0 
L 581 0 
L 581 4863 
L 1159 4863 
L 1159 2956 
Q 1366 3272 1645 3428 
Q 1925 3584 2291 3584 
Q 2894 3584 3203 3211 
Q 3513 2838 3513 2113 
z
" transform="scale(0.015625)"/>
     </defs>
     <use xlink:href="#DejaVuSans-50"/>
     <use xlink:href="#DejaVuSans-72" x="58.552734"/>
     <use xlink:href="#DejaVuSans-65" x="97.416016"/>
     <use xlink:href="#DejaVuSans-2011" x="158.939453"/>
     <use xlink:href="#DejaVuSans-68" x="195.023438"/>
     <use xlink:href="#DejaVuSans-65" x="258.402344"/>
     <use xlink:href="#DejaVuSans-61" x="319.925781"/>
     <use xlink:href="#DejaVuSans-74" x="381.205078"/>
    </g>
   </g>
   <g id="text_4">
    <!-- UV Laser Panels -->
    <g style="fill: #333333" transform="translate(608.0625 108.040469) scale(0.1 -0.1)">
     <defs>
      <path id="DejaVuSans-55" d="M 556 4666 
L 1191 4666 
L 1191 1831 
Q 1191 1081 1462 751 
Q 1734 422 2344 422 
Q 2950 422 3222 751 
Q 3494 1081 3494 1831 
L 3494 4666 
L 4128 4666 
L 4128 1753 
Q 4128 841 3676 375 
Q 3225 -91 2344 -91 
Q 1459 -91 1007 375 
Q 556 841 556 1753 
L 556 4666 
z
" transform="scale(0.015625)"/>
      <path id="DejaVuSans-56" d="M 1831 0 
L 50 4666 
L 709 4666 
L 2188 738 
L 3669 4666 
L 4325 4666 
L 2547 0 
L 1831 0 
z
" transform="scale(0.015625)"/>
      <path id="DejaVuSans-4c" d="M 628 4666 
L 1259 4666 
L 1259 531 
L 3531 531 
L 3531 0 
L 628 0 
L 628 4666 
z
" transform="scale(0.015625)"/>
     </defs>
     <use xlink:href="#DejaVuSans-55"/>
     <use xlink:href="#DejaVuSans-56" x="73.193359"/>
     <use xlink:href="#DejaVuSans-20" x="141.601562"/>
     <use xlink:href="#DejaVuSans-4c" x="173.388672"/>
     <use xlink:href="#DejaVuSans-61" x="229.101562"/>
     <use xlink:href="#DejaVuSans-73" x="290.380859"/>
     <use xlink:href="#DejaVuSans-65" x="342.480469"/>
     <use xlink:href="#DejaVuSans-72" x="404.003906"/>
     <use xlink:href="#DejaVuSans-20" x="445.117188"/>
     <use xlink:href="#DejaVuSans-50" x="476.904297"/>
     <use xlink:href="#DejaVuSans-61" x="532.707031"/>
     <use xlink:href="#DejaVuSans-6e" x="593.986328"/>
     <use xlink:href="#DejaVuSans-65" x="657.365234"/>
     <use xlink:href="#DejaVuSans-6c" x="718.888672"/>
     <use xlink:href="#DejaVuSans-73" x="746.671875"/>
    </g>
    <!-- (192–384 beams) -->
    <g style="fill: #333333" transform="translate(604.132031 119.238281) scale(0.1 -0.1)">
     <defs>
      <path id="DejaVuSans-31" d="M 794 531 
L 1825 531 
L 1825 4091 
L 703 3866 
L 703 4441 
L 1819 4666 
L 2450 4666 
L 2450 531 
L 3481 531 
L 3481 0 
L 794 0 
L 794 531 
z
" transform="scale(0.015625)"/>
      <path id="DejaVuSans-39" d="M 703 97 
L 703 672 
Q 941 559 1184 500 
Q 1428 441 1663 441 
Q 2288 441 2617 861 
Q 2947 1281 2994 2138 
Q 2813 1869 2534 1725 
Q 2256 1581 1919 1581 
Q 1219 1581 811 2004 
Q 403 2428 403 3163 
Q 403 3881 828 4315 
Q 1253 4750 1959 4750 
Q 2769 4750 3195 4129 
Q 3622 3509 3622 2328 
Q 3622 1225 3098 567 
Q 2575 -91 1691 -91 
Q 1453 -91 1209 -44 
Q 966 3 703 97 
z
M 1959 2075 
Q 2384 2075 2632 2365 
Q 2881 2656 2881 3163 
Q 2881 3666 2632 3958 
Q 2384 4250 1959 4250 
Q 1534 4250 1286 3958 
Q 1038 3666 1038 3163 
Q 1038 2656 1286 2365 
Q 1534 2075 1959 2075 
z
" transform="scale(0.015625)"/>
      <path id="DejaVuSans-32" d="M 1228 531 
L 3431 531 
L 3431 0 
L 469 0 
L 469 531 
Q 828 903 1448 1529 
Q 2069 2156 2228 2338 
Q 2531 2678 2651 2914 
Q 2772 3150 2772 3378 
Q 2772 3750 2511 3984 
Q 2250 4219 1831 4219 
Q 1534 4219 1204 4116 
Q 875 4013 500 3803 
L 500 4441 
Q 881 4594 1212 4672 
Q 1544 4750 1819 4750 
Q 2544 4750 2975 4387 
Q 3406 4025 3406 3419 
Q 3406 3131 3298 2873 
Q 3191 2616 2906 2266 
Q 2828 2175 2409 1742 
Q 1991 1309 1228 531 
z
" transform="scale(0.015625)"/>
      <path id="DejaVuSans-2013" d="M 313 1978 
L 2888 1978 
L 2888 1528 
L 313 1528 
L 313 1978 
z
" transform="scale(0.015625)"/>
      <path id="DejaVuSans-33" d="M 2597 2516 
Q 3050 2419 3304 2112 
Q 3559 1806 3559 1356 
Q 3559 666 3084 287 
Q 2609 -91 1734 -91 
Q 1441 -91 1130 -33 
Q 819 25 488 141 
L 488 750 
Q 750 597 1062 519 
Q 1375 441 1716 441 
Q 2309 441 2620 675 
Q 2931 909 2931 1356 
Q 2931 1769 2642 2001 
Q 2353 2234 1838 2234 
L 1294 2234 
L 1294 2753 
L 1863 2753 
Q 2328 2753 2575 2939 
Q 2822 3125 2822 3475 
Q 2822 3834 2567 4026 
Q 2313 4219 1838 4219 
Q 1578 4219 1281 4162 
Q 984 4106 628 3988 
L 628 4550 
Q 988 4650 1302 4700 
Q 1616 4750 1894 4750 
Q 2613 4750 3031 4423 
Q 3450 4097 3450 3541 
Q 3450 3153 3228 2886 
Q 3006 2619 2597 2516 
z
" transform="scale(0.015625)"/>
      <path id="DejaVuSans-38" d="M 2034 2216 
Q 1584 2216 1326 1975 
Q 1069 1734 1069 1313 
Q 1069 891 1326 650 
Q 1584 409 2034 409 
Q 2484 409 2743 651 
Q 3003 894 3003 1313 
Q 3003 1734 2745 1975 
Q 2488 2216 2034 2216 
z
M 1403 2484 
Q 997 2584 770 2862 
Q 544 3141 544 3541 
Q 544 4100 942 4425 
Q 1341 4750 2034 4750 
Q 2731 4750 3128 4425 
Q 3525 4100 3525 3541 
Q 3525 3141 3298 2862 
Q 3072 2584 2669 2484 
Q 3125 2378 3379 2068 
Q 3634 1759 3634 1313 
Q 3634 634 3220 271 
Q 2806 -91 2034 -91 
Q 1263 -91 848 271 
Q 434 634 434 1313 
Q 434 1759 690 2068 
Q 947 2378 1403 2484 
z
M 1172 3481 
Q 1172 3119 1398 2916 
Q 1625 2713 2034 2713 
Q 2441 2713 2670 2916 
Q 2900 3119 2900 3481 
Q 2900 3844 2670 4047 
Q 2441 4250 2034 4250 
Q 1625 4250 1398 4047 
Q 1172 3844 1172 3481 
z
" transform="scale(0.015625)"/>
      <path id="DejaVuSans-34" d="M 2419 4116 
L 825 1625 
L 2419 1625 
L 2419 4116 
z
M 2253 4666 
L 3047 4666 
L 3047 1625 
L 3713 1625 
L 3713 1100 
L 3047 1100 
L 3047 0 
L 2419 0 
L 2419 1100 
L 313 1100 
L 313 1709 
L 2253 4666 
z
" transform="scale(0.015625)"/>
      <path id="DejaVuSans-62" d="M 3116 1747 
Q 3116 2381 2855 2742 
Q 2594 3103 2138 3103 
Q 1681 3103 1420 2742 
Q 1159 2381 1159 1747 
Q 1159 1113 1420 752 
Q 1681 391 2138 391 
Q 2594 391 2855 752 
Q 3116 1113 3116 1747 
z
M 1159 2969 
Q 1341 3281 1617 3432 
Q 1894 3584 2278 3584 
Q 2916 3584 3314 3078 
Q 3713 2572 3713 1747 
Q 3713 922 3314 415 
Q 2916 -91 2278 -91 
Q 1894 -91 1617 61 
Q 1341 213 1159 525 
L 1159 0 
L 581 0 
L 581 4863 
L 1159 4863 
L 1159 2969 
z
" transform="scale(0.015625)"/>
     </defs>
     <use xlink:href="#DejaVuSans-28"/>
     <use xlink:href="#DejaVuSans-31" x="39.013672"/>
     <use xlink:href="#DejaVuSans-39" x="102.636719"/>
     <use xlink:href="#DejaVuSans-32" x="166.259766"/>
     <use xlink:href="#DejaVuSans-2013" x="229.882812"/>
     <use xlink:href="#DejaVuSans-33" x="279.882812"/>
     <use xlink:href="#DejaVuSans-38" x="343.505859"/>
     <use xlink:href="#DejaVuSans-34" x="407.128906"/>
     <use xlink:href="#DejaVuSans-20" x="470.751953"/>
     <use xlink:href="#DejaVuSans-62" x="502.539062"/>
     <use xlink:href="#DejaVuSans-65" x="566.015625"/>
     <use xlink:href="#DejaVuSans-61" x="627.539062"/>
     <use xlink:href="#DejaVuSans-6d" x="688.818359"/>
     <use xlink:href="#DejaVuSans-73" x="786.230469"/>
     <use xlink:href="#DejaVuSans-29" x="838.330078"/>
    </g>
   </g>
   <g id="text_5">
    <!-- pellets -->
    <g style="fill: #333333" transform="translate(182.996719 100.368281) scale(0.09 -0.09)">
     <use xlink:href="#DejaVuSans-70"/>
     <use xlink:href="#DejaVuSans-65" x="63.476562"/>
     <use xlink:href="#DejaVuSans-6c" x="125"/>
     <use xlink:href="#DejaVuSans-6c" x="152.783203"/>
     <use xlink:href="#DejaVuSans-65" x="180.566406"/>
     <use xlink:href="#DejaVuSans-74" x="242.089844"/>
     <use xlink:href="#DejaVuSans-73" x="281.298828"/>
    </g>
   </g>
   <g id="text_6">
    <!-- timed shot -->
    <g style="fill: #333333" transform="translate(353.832891 100.368281) scale(0.09 -0.09)">
     <defs>
      <path id="DejaVuSans-69" d="M 603 3500 
L 1178 3500 
L 1178 0 
L 603 0 
L 603 3500 
z
M 603 4863 
L 1178 4863 
L 1178 4134 
L 603 4134 
L 603 4863 
z
" transform="scale(0.015625)"/>
      <path id="DejaVuSans-64" d="M 2906 2969 
L 2906 4863 
L 3481 4863 
L 3481 0 
L 2906 0 
L 2906 525 
Q 2725 213 2448 61 
Q 2172 -91 1784 -91 
Q 1150 -91 751 415 
Q 353 922 353 1747 
Q 353 2572 751 3078 
Q 1150 3584 1784 3584 
Q 2172 3584 2448 3432 
Q 2725 3281 2906 2969 
z
M 947 1747 
Q 947 1113 1208 752 
Q 1469 391 1925 391 
Q 2381 391 2643 752 
Q 2906 1113 2906 1747 
Q 2906 2381 2643 2742 
Q 2381 3103 1925 3103 
Q 1469 3103 1208 2742 
Q 947 2381 947 1747 
z
" transform="scale(0.015625)"/>
     </defs>
     <use xlink:href="#DejaVuSans-74"/>
     <use xlink:href="#DejaVuSans-69" x="39.208984"/>
     <use xlink:href="#DejaVuSans-6d" x="66.992188"/>
     <use xlink:href="#DejaVuSans-65" x="164.404297"/>
     <use xlink:href="#DejaVuSans-64" x="225.927734"/>
     <use xlink:href="#DejaVuSans-20" x="289.404297"/>
     <use xlink:href="#DejaVuSans-73" x="321.191406"/>
     <use xlink:href="#DejaVuSans-68" x="373.291016"/>
     <use xlink:href="#DejaVuSans-6f" x="436.669922"/>
     <use xlink:href="#DejaVuSans-74" x="497.851562"/>
    </g>
   </g>
   <g id="text_7">
    <!-- pre‑heated -->
    <g style="fill: #333333" transform="translate(533.233828 90.29025) scale(0.09 -0.09)">
     <use xlink:href="#DejaVuSans-70"/>
     <use xlink:href="#DejaVuSans-72" x="63.476562"/>
     <use xlink:href="#DejaVuSans-65" x="102.339844"/>
     <use xlink:href="#DejaVuSans-2011" x="163.863281"/>
     <use xlink:href="#DejaVuSans-68" x="199.947266"/>
     <use xlink:href="#DejaVuSans-65" x="263.326172"/>
     <use xlink:href="#DejaVuSans-61" x="324.849609"/>
     <use xlink:href="#DejaVuSans-74" x="386.128906"/>
     <use xlink:href="#DejaVuSans-65" x="425.337891"/>
     <use xlink:href="#DejaVuSans-64" x="486.861328"/>
    </g>
    <!-- pellet -->
    <g style="fill: #333333" transform="translate(545.340937 100.368281) scale(0.09 -0.09)">
     <use xlink:href="#DejaVuSans-70"/>
     <use xlink:href="#DejaVuSans-65" x="63.476562"/>
     <use xlink:href="#DejaVuSans-6c" x="125"/>
     <use xlink:href="#DejaVuSans-6c" x="152.783203"/>
     <use xlink:href="#DejaVuSans-65" x="180.566406"/>
     <use xlink:href="#DejaVuSans-74" x="242.089844"/>
    </g>
   </g>
   <g id="text_8">
    <!-- Fusion Chamber -->
    <g style="fill: #333333" transform="translate(319.51875 207.400469) scale(0.1 -0.1)">
     <defs>
      <path id="DejaVuSans-75" d="M 544 1381 
L 544 3500 
L 1119 3500 
L 1119 1403 
Q 1119 906 1312 657 
Q 1506 409 1894 409 
Q 2359 409 2629 706 
Q 2900 1003 2900 1516 
L 2900 3500 
L 3475 3500 
L 3475 0 
L 2900 0 
L 2900 538 
Q 2691 219 2414 64 
Q 2138 -91 1772 -91 
Q 1169 -91 856 284 
Q 544 659 544 1381 
z
M 1991 3584 
L 1991 3584 
z
" transform="scale(0.015625)"/>
      <path id="DejaVuSans-43" d="M 4122 4306 
L 4122 3641 
Q 3803 3938 3442 4084 
Q 3081 4231 2675 4231 
Q 1875 4231 1450 3742 
Q 1025 3253 1025 2328 
Q 1025 1406 1450 917 
Q 1875 428 2675 428 
Q 3081 428 3442 575 
Q 3803 722 4122 1019 
L 4122 359 
Q 3791 134 3420 21 
Q 3050 -91 2638 -91 
Q 1578 -91 968 557 
Q 359 1206 359 2328 
Q 359 3453 968 4101 
Q 1578 4750 2638 4750 
Q 3056 4750 3426 4639 
Q 3797 4528 4122 4306 
z
" transform="scale(0.015625)"/>
     </defs>
     <use xlink:href="#DejaVuSans-46"/>
     <use xlink:href="#DejaVuSans-75" x="52.019531"/>
     <use xlink:href="#DejaVuSans-73" x="115.398438"/>
     <use xlink:href="#DejaVuSans-69" x="167.498047"/>
     <use xlink:href="#DejaVuSans-6f" x="195.28125"/>
     <use xlink:href="#DejaVuSans-6e" x="256.462891"/>
     <use xlink:href="#DejaVuSans-20" x="319.841797"/>
     <use xlink:href="#DejaVuSans-43" x="351.628906"/>
     <use xlink:href="#DejaVuSans-68" x="421.453125"/>
     <use xlink:href="#DejaVuSans-61" x="484.832031"/>
     <use xlink:href="#DejaVuSans-6d" x="546.111328"/>
     <use xlink:href="#DejaVuSans-62" x="643.523438"/>
     <use xlink:href="#DejaVuSans-65" x="707"/>
     <use xlink:href="#DejaVuSans-72" x="768.523438"/>
    </g>
    <!-- (micro‑bursts) -->
    <g style="fill: #333333" transform="translate(324.715625 218.598281) scale(0.1 -0.1)">
     <use xlink:href="#DejaVuSans-28"/>
     <use xlink:href="#DejaVuSans-6d" x="39.013672"/>
     <use xlink:href="#DejaVuSans-69" x="136.425781"/>
     <use xlink:href="#DejaVuSans-63" x="164.208984"/>
     <use xlink:href="#DejaVuSans-72" x="219.189453"/>
     <use xlink:href="#DejaVuSans-6f" x="258.052734"/>
     <use xlink:href="#DejaVuSans-2011" x="319.234375"/>
     <use xlink:href="#DejaVuSans-62" x="355.318359"/>
     <use xlink:href="#DejaVuSans-75" x="418.794922"/>
     <use xlink:href="#DejaVuSans-72" x="482.173828"/>
     <use xlink:href="#DejaVuSans-73" x="523.287109"/>
     <use xlink:href="#DejaVuSans-74" x="575.386719"/>
     <use xlink:href="#DejaVuSans-73" x="614.595703"/>
     <use xlink:href="#DejaVuSans-29" x="666.695312"/>
    </g>
   </g>
   <g id="text_9">
    <!-- Alpha capture coils -->
    <g style="fill: #333333" transform="translate(81.878125 207.400469) scale(0.1 -0.1)">
     <defs>
      <path id="DejaVuSans-41" d="M 2188 4044 
L 1331 1722 
L 3047 1722 
L 2188 4044 
z
M 1831 4666 
L 2547 4666 
L 4325 0 
L 3669 0 
L 3244 1197 
L 1141 1197 
L 716 0 
L 50 0 
L 1831 4666 
z
" transform="scale(0.015625)"/>
     </defs>
     <use xlink:href="#DejaVuSans-41"/>
     <use xlink:href="#DejaVuSans-6c" x="68.408203"/>
     <use xlink:href="#DejaVuSans-70" x="96.191406"/>
     <use xlink:href="#DejaVuSans-68" x="159.667969"/>
     <use xlink:href="#DejaVuSans-61" x="223.046875"/>
     <use xlink:href="#DejaVuSans-20" x="284.326172"/>
     <use xlink:href="#DejaVuSans-63" x="316.113281"/>
     <use xlink:href="#DejaVuSans-61" x="371.09375"/>
     <use xlink:href="#DejaVuSans-70" x="432.373047"/>
     <use xlink:href="#DejaVuSans-74" x="495.849609"/>
     <use xlink:href="#DejaVuSans-75" x="535.058594"/>
     <use xlink:href="#DejaVuSans-72" x="598.4375"/>
     <use xlink:href="#DejaVuSans-65" x="637.300781"/>
     <use xlink:href="#DejaVuSans-20" x="698.824219"/>
     <use xlink:href="#DejaVuSans-63" x="730.611328"/>
     <use xlink:href="#DejaVuSans-6f" x="785.591797"/>
     <use xlink:href="#DejaVuSans-69" x="846.773438"/>
     <use xlink:href="#DejaVuSans-6c" x="874.556641"/>
     <use xlink:href="#DejaVuSans-73" x="902.339844"/>
    </g>
    <!-- &amp; first wall -->
    <g style="fill: #333333" transform="translate(102.821875 218.598281) scale(0.1 -0.1)">
     <defs>
      <path id="DejaVuSans-26" d="M 1556 2509 
Q 1272 2256 1139 2004 
Q 1006 1753 1006 1478 
Q 1006 1022 1337 719 
Q 1669 416 2169 416 
Q 2466 416 2725 514 
Q 2984 613 3213 813 
L 1556 2509 
z
M 1997 2859 
L 3584 1234 
Q 3769 1513 3872 1830 
Q 3975 2147 3994 2503 
L 4575 2503 
Q 4538 2091 4375 1687 
Q 4213 1284 3922 891 
L 4794 0 
L 4006 0 
L 3559 459 
Q 3234 181 2878 45 
Q 2522 -91 2113 -91 
Q 1359 -91 881 339 
Q 403 769 403 1441 
Q 403 1841 612 2192 
Q 822 2544 1241 2853 
Q 1091 3050 1012 3245 
Q 934 3441 934 3628 
Q 934 4134 1281 4442 
Q 1628 4750 2203 4750 
Q 2463 4750 2720 4694 
Q 2978 4638 3244 4525 
L 3244 3956 
Q 2972 4103 2725 4179 
Q 2478 4256 2266 4256 
Q 1938 4256 1733 4082 
Q 1528 3909 1528 3634 
Q 1528 3475 1620 3314 
Q 1713 3153 1997 2859 
z
" transform="scale(0.015625)"/>
      <path id="DejaVuSans-66" d="M 2375 4863 
L 2375 4384 
L 1825 4384 
Q 1516 4384 1395 4259 
Q 1275 4134 1275 3809 
L 1275 3500 
L 2222 3500 
L 2222 3053 
L 1275 3053 
L 1275 0 
L 697 0 
L 697 3053 
L 147 3053 
L 147 3500 
L 697 3500 
L 697 3744 
Q 697 4328 969 4595 
Q 1241 4863 1831 4863 
L 2375 4863 
z
" transform="scale(0.015625)"/>
     </defs>
     <use xlink:href="#DejaVuSans-26"/>
     <use xlink:href="#DejaVuSans-20" x="77.978516"/>
     <use xlink:href="#DejaVuSans-66" x="109.765625"/>
     <use xlink:href="#DejaVuSans-69" x="144.970703"/>
     <use xlink:href="#DejaVuSans-72" x="172.753906"/>
     <use xlink:href="#DejaVuSans-73" x="213.867188"/>
     <use xlink:href="#DejaVuSans-74" x="265.966797"/>
     <use xlink:href="#DejaVuSans-20" x="305.175781"/>
     <use xlink:href="#DejaVuSans-77" x="336.962891"/>
     <use xlink:href="#DejaVuSans-61" x="418.75"/>
     <use xlink:href="#DejaVuSans-6c" x="480.029297"/>
     <use xlink:href="#DejaVuSans-6c" x="507.8125"/>
    </g>
   </g>
   <g id="text_10">
    <!-- Liquid blanket + -->
    <g style="fill: #333333" transform="translate(535.003906 207.400469) scale(0.1 -0.1)">
     <defs>
      <path id="DejaVuSans-71" d="M 947 1747 
Q 947 1113 1208 752 
Q 1469 391 1925 391 
Q 2381 391 2643 752 
Q 2906 1113 2906 1747 
Q 2906 2381 2643 2742 
Q 2381 3103 1925 3103 
Q 1469 3103 1208 2742 
Q 947 2381 947 1747 
z
M 2906 525 
Q 2725 213 2448 61 
Q 2172 -91 1784 -91 
Q 1150 -91 751 415 
Q 353 922 353 1747 
Q 353 2572 751 3078 
Q 1150 3584 1784 3584 
Q 2172 3584 2448 3432 
Q 2725 3281 2906 2969 
L 2906 3500 
L 3481 3500 
L 3481 -1331 
L 2906 -1331 
L 2906 525 
z
" transform="scale(0.015625)"/>
      <path id="DejaVuSans-6b" d="M 581 4863 
L 1159 4863 
L 1159 1991 
L 2875 3500 
L 3609 3500 
L 1753 1863 
L 3688 0 
L 2938 0 
L 1159 1709 
L 1159 0 
L 581 0 
L 581 4863 
z
" transform="scale(0.015625)"/>
      <path id="DejaVuSans-2b" d="M 2944 4013 
L 2944 2272 
L 4684 2272 
L 4684 1741 
L 2944 1741 
L 2944 0 
L 2419 0 
L 2419 1741 
L 678 1741 
L 678 2272 
L 2419 2272 
L 2419 4013 
L 2944 4013 
z
" transform="scale(0.015625)"/>
     </defs>
     <use xlink:href="#DejaVuSans-4c"/>
     <use xlink:href="#DejaVuSans-69" x="55.712891"/>
     <use xlink:href="#DejaVuSans-71" x="83.496094"/>
     <use xlink:href="#DejaVuSans-75" x="146.972656"/>
     <use xlink:href="#DejaVuSans-69" x="210.351562"/>
     <use xlink:href="#DejaVuSans-64" x="238.134766"/>
     <use xlink:href="#DejaVuSans-20" x="301.611328"/>
     <use xlink:href="#DejaVuSans-62" x="333.398438"/>
     <use xlink:href="#DejaVuSans-6c" x="396.875"/>
     <use xlink:href="#DejaVuSans-61" x="424.658203"/>
     <use xlink:href="#DejaVuSans-6e" x="485.9375"/>
     <use xlink:href="#DejaVuSans-6b" x="549.316406"/>
     <use xlink:href="#DejaVuSans-65" x="603.601562"/>
     <use xlink:href="#DejaVuSans-74" x="665.125"/>
     <use xlink:href="#DejaVuSans-20" x="704.333984"/>
     <use xlink:href="#DejaVuSans-2b" x="736.121094"/>
    </g>
    <!-- Thermal buffer -->
    <g style="fill: #333333" transform="translate(538.825 218.598281) scale(0.1 -0.1)">
     <use xlink:href="#DejaVuSans-54"/>
     <use xlink:href="#DejaVuSans-68" x="61.083984"/>
     <use xlink:href="#DejaVuSans-65" x="124.462891"/>
     <use xlink:href="#DejaVuSans-72" x="185.986328"/>
     <use xlink:href="#DejaVuSans-6d" x="225.349609"/>
     <use xlink:href="#DejaVuSans-61" x="322.761719"/>
     <use xlink:href="#DejaVuSans-6c" x="384.041016"/>
     <use xlink:href="#DejaVuSans-20" x="411.824219"/>
     <use xlink:href="#DejaVuSans-62" x="443.611328"/>
     <use xlink:href="#DejaVuSans-75" x="507.087891"/>
     <use xlink:href="#DejaVuSans-66" x="570.466797"/>
     <use xlink:href="#DejaVuSans-66" x="605.671875"/>
     <use xlink:href="#DejaVuSans-65" x="640.876953"/>
     <use xlink:href="#DejaVuSans-72" x="702.400391"/>
    </g>
   </g>
   <g id="text_11">
    <!-- UV -->
    <g style="fill: #333333" transform="translate(609.228281 152.93025) scale(0.09 -0.09)">
     <use xlink:href="#DejaVuSans-55"/>
     <use xlink:href="#DejaVuSans-56" x="73.193359"/>
    </g>
    <!-- ns‑pulse -->
    <g style="fill: #333333" transform="translate(596.708438 163.008281) scale(0.09 -0.09)">
     <use xlink:href="#DejaVuSans-6e"/>
     <use xlink:href="#DejaVuSans-73" x="63.378906"/>
     <use xlink:href="#DejaVuSans-2011" x="115.478516"/>
     <use xlink:href="#DejaVuSans-70" x="151.5625"/>
     <use xlink:href="#DejaVuSans-75" x="215.039062"/>
     <use xlink:href="#DejaVuSans-6c" x="278.417969"/>
     <use xlink:href="#DejaVuSans-73" x="306.201172"/>
     <use xlink:href="#DejaVuSans-65" x="358.300781"/>
    </g>
   </g>
   <g id="text_12">
    <!-- mm‑wave -->
    <g style="fill: #333333" transform="translate(398.939766 152.93025) scale(0.09 -0.09)">
     <use xlink:href="#DejaVuSans-6d"/>
     <use xlink:href="#DejaVuSans-6d" x="97.412109"/>
     <use xlink:href="#DejaVuSans-2011" x="194.824219"/>
     <use xlink:href="#DejaVuSans-77" x="230.908203"/>
     <use xlink:href="#DejaVuSans-61" x="312.695312"/>
     <use xlink:href="#DejaVuSans-76" x="373.974609"/>
     <use xlink:href="#DejaVuSans-65" x="433.154297"/>
    </g>
    <!-- pre‑heat -->
    <g style="fill: #333333" transform="translate(402.059531 163.008281) scale(0.09 -0.09)">
     <use xlink:href="#DejaVuSans-70"/>
     <use xlink:href="#DejaVuSans-72" x="63.476562"/>
     <use xlink:href="#DejaVuSans-65" x="102.339844"/>
     <use xlink:href="#DejaVuSans-2011" x="163.863281"/>
     <use xlink:href="#DejaVuSans-68" x="199.947266"/>
     <use xlink:href="#DejaVuSans-65" x="263.326172"/>
     <use xlink:href="#DejaVuSans-61" x="324.849609"/>
     <use xlink:href="#DejaVuSans-74" x="386.128906"/>
    </g>
   </g>
   <g id="text_13">
    <!-- alphas -->
    <g style="fill: #333333" transform="translate(222.781641 199.728281) scale(0.09 -0.09)">
     <use xlink:href="#DejaVuSans-61"/>
     <use xlink:href="#DejaVuSans-6c" x="61.279297"/>
     <use xlink:href="#DejaVuSans-70" x="89.0625"/>
     <use xlink:href="#DejaVuSans-68" x="152.539062"/>
     <use xlink:href="#DejaVuSans-61" x="215.917969"/>
     <use xlink:href="#DejaVuSans-73" x="277.197266"/>
    </g>
   </g>
   <g id="text_14">
    <!-- heat -->
    <g style="fill: #333333" transform="translate(457.857422 199.728281) scale(0.09 -0.09)">
     <use xlink:href="#DejaVuSans-68"/>
     <use xlink:href="#DejaVuSans-65" x="63.378906"/>
     <use xlink:href="#DejaVuSans-61" x="124.902344"/>
     <use xlink:href="#DejaVuSans-74" x="186.181641"/>
    </g>
   </g>
   <g id="text_15">
    <!-- Primary→Power HX -->
    <g style="fill: #333333" transform="translate(132.600781 319.720469) scale(0.1 -0.1)">
     <defs>
      <path id="DejaVuSans-2192" d="M 5050 2147 
L 5050 1866 
L 3822 638 
L 3447 1013 
L 4175 1741 
L 366 1741 
L 366 2272 
L 4175 2272 
L 3447 3000 
L 3822 3375 
L 5050 2147 
z
" transform="scale(0.015625)"/>
      <path id="DejaVuSans-48" d="M 628 4666 
L 1259 4666 
L 1259 2753 
L 3553 2753 
L 3553 4666 
L 4184 4666 
L 4184 0 
L 3553 0 
L 3553 2222 
L 1259 2222 
L 1259 0 
L 628 0 
L 628 4666 
z
" transform="scale(0.015625)"/>
      <path id="DejaVuSans-58" d="M 403 4666 
L 1081 4666 
L 2241 2931 
L 3406 4666 
L 4084 4666 
L 2584 2425 
L 4184 0 
L 3506 0 
L 2194 1984 
L 872 0 
L 191 0 
L 1856 2491 
L 403 4666 
z
" transform="scale(0.015625)"/>
     </defs>
     <use xlink:href="#DejaVuSans-50"/>
     <use xlink:href="#DejaVuSans-72" x="58.552734"/>
     <use xlink:href="#DejaVuSans-69" x="99.666016"/>
     <use xlink:href="#DejaVuSans-6d" x="127.449219"/>
     <use xlink:href="#DejaVuSans-61" x="224.861328"/>
     <use xlink:href="#DejaVuSans-72" x="286.140625"/>
     <use xlink:href="#DejaVuSans-79" x="327.253906"/>
     <use xlink:href="#DejaVuSans-2192" x="386.433594"/>
     <use xlink:href="#DejaVuSans-50" x="470.222656"/>
     <use xlink:href="#DejaVuSans-6f" x="526.900391"/>
     <use xlink:href="#DejaVuSans-77" x="588.082031"/>
     <use xlink:href="#DejaVuSans-65" x="669.869141"/>
     <use xlink:href="#DejaVuSans-72" x="731.392578"/>
     <use xlink:href="#DejaVuSans-20" x="772.505859"/>
     <use xlink:href="#DejaVuSans-48" x="804.292969"/>
     <use xlink:href="#DejaVuSans-58" x="879.488281"/>
    </g>
    <!-- (double‑wall, He sweep) -->
    <g style="fill: #333333" transform="translate(119.696094 330.918281) scale(0.1 -0.1)">
     <defs>
      <path id="DejaVuSans-2c" d="M 750 794 
L 1409 794 
L 1409 256 
L 897 -744 
L 494 -744 
L 750 256 
L 750 794 
z
" transform="scale(0.015625)"/>
     </defs>
     <use xlink:href="#DejaVuSans-28"/>
     <use xlink:href="#DejaVuSans-64" x="39.013672"/>
     <use xlink:href="#DejaVuSans-6f" x="102.490234"/>
     <use xlink:href="#DejaVuSans-75" x="163.671875"/>
     <use xlink:href="#DejaVuSans-62" x="227.050781"/>
     <use xlink:href="#DejaVuSans-6c" x="290.527344"/>
     <use xlink:href="#DejaVuSans-65" x="318.310547"/>
     <use xlink:href="#DejaVuSans-2011" x="379.833984"/>
     <use xlink:href="#DejaVuSans-77" x="415.917969"/>
     <use xlink:href="#DejaVuSans-61" x="497.705078"/>
     <use xlink:href="#DejaVuSans-6c" x="558.984375"/>
     <use xlink:href="#DejaVuSans-6c" x="586.767578"/>
     <use xlink:href="#DejaVuSans-2c" x="614.550781"/>
     <use xlink:href="#DejaVuSans-20" x="646.337891"/>
     <use xlink:href="#DejaVuSans-48" x="678.125"/>
     <use xlink:href="#DejaVuSans-65" x="753.320312"/>
     <use xlink:href="#DejaVuSans-20" x="814.84375"/>
     <use xlink:href="#DejaVuSans-73" x="846.630859"/>
     <use xlink:href="#DejaVuSans-77" x="898.730469"/>
     <use xlink:href="#DejaVuSans-65" x="980.517578"/>
     <use xlink:href="#DejaVuSans-65" x="1042.041016"/>
     <use xlink:href="#DejaVuSans-70" x="1103.564453"/>
     <use xlink:href="#DejaVuSans-29" x="1167.041016"/>
    </g>
   </g>
   <g id="text_16">
    <!-- Power cycle -->
    <g style="fill: #333333" transform="translate(359.173438 314.121562) scale(0.1 -0.1)">
     <use xlink:href="#DejaVuSans-50"/>
     <use xlink:href="#DejaVuSans-6f" x="56.677734"/>
     <use xlink:href="#DejaVuSans-77" x="117.859375"/>
     <use xlink:href="#DejaVuSans-65" x="199.646484"/>
     <use xlink:href="#DejaVuSans-72" x="261.169922"/>
     <use xlink:href="#DejaVuSans-20" x="302.283203"/>
     <use xlink:href="#DejaVuSans-63" x="334.070312"/>
     <use xlink:href="#DejaVuSans-79" x="389.050781"/>
     <use xlink:href="#DejaVuSans-63" x="448.230469"/>
     <use xlink:href="#DejaVuSans-6c" x="503.210938"/>
     <use xlink:href="#DejaVuSans-65" x="530.994141"/>
    </g>
    <!-- (sCO₂ or steam) -->
    <g style="fill: #333333" transform="translate(348.992969 325.319375) scale(0.1 -0.1)">
     <defs>
      <path id="DejaVuSans-4f" d="M 2522 4238 
Q 1834 4238 1429 3725 
Q 1025 3213 1025 2328 
Q 1025 1447 1429 934 
Q 1834 422 2522 422 
Q 3209 422 3611 934 
Q 4013 1447 4013 2328 
Q 4013 3213 3611 3725 
Q 3209 4238 2522 4238 
z
M 2522 4750 
Q 3503 4750 4090 4092 
Q 4678 3434 4678 2328 
Q 4678 1225 4090 567 
Q 3503 -91 2522 -91 
Q 1538 -91 948 565 
Q 359 1222 359 2328 
Q 359 3434 948 4092 
Q 1538 4750 2522 4750 
z
" transform="scale(0.015625)"/>
      <path id="DejaVuSans-2082" d="M 838 332 
L 2163 332 
L 2163 -24 
L 294 -24 
L 294 319 
Q 400 416 597 591 
Q 1672 1544 1672 1838 
Q 1672 2044 1509 2170 
Q 1347 2297 1081 2297 
Q 919 2297 728 2242 
Q 538 2188 313 2079 
L 313 2463 
Q 553 2551 761 2594 
Q 969 2638 1147 2638 
Q 1600 2638 1872 2432 
Q 2144 2226 2144 1888 
Q 2144 1454 1109 566 
Q 934 416 838 332 
z
" transform="scale(0.015625)"/>
     </defs>
     <use xlink:href="#DejaVuSans-28"/>
     <use xlink:href="#DejaVuSans-73" x="39.013672"/>
     <use xlink:href="#DejaVuSans-43" x="91.113281"/>
     <use xlink:href="#DejaVuSans-4f" x="160.9375"/>
     <use xlink:href="#DejaVuSans-2082" x="239.648438"/>
     <use xlink:href="#DejaVuSans-20" x="279.736328"/>
     <use xlink:href="#DejaVuSans-6f" x="311.523438"/>
     <use xlink:href="#DejaVuSans-72" x="372.705078"/>
     <use xlink:href="#DejaVuSans-20" x="413.818359"/>
     <use xlink:href="#DejaVuSans-73" x="445.605469"/>
     <use xlink:href="#DejaVuSans-74" x="497.705078"/>
     <use xlink:href="#DejaVuSans-65" x="536.914062"/>
     <use xlink:href="#DejaVuSans-61" x="598.4375"/>
     <use xlink:href="#DejaVuSans-6d" x="659.716797"/>
     <use xlink:href="#DejaVuSans-29" x="757.128906"/>
    </g>
    <!-- → Generator -->
    <g style="fill: #333333" transform="translate(357.630469 336.517187) scale(0.1 -0.1)">
     <defs>
      <path id="DejaVuSans-47" d="M 3809 666 
L 3809 1919 
L 2778 1919 
L 2778 2438 
L 4434 2438 
L 4434 434 
Q 4069 175 3628 42 
Q 3188 -91 2688 -91 
Q 1594 -91 976 548 
Q 359 1188 359 2328 
Q 359 3472 976 4111 
Q 1594 4750 2688 4750 
Q 3144 4750 3555 4637 
Q 3966 4525 4313 4306 
L 4313 3634 
Q 3963 3931 3569 4081 
Q 3175 4231 2741 4231 
Q 1884 4231 1454 3753 
Q 1025 3275 1025 2328 
Q 1025 1384 1454 906 
Q 1884 428 2741 428 
Q 3075 428 3337 486 
Q 3600 544 3809 666 
z
" transform="scale(0.015625)"/>
     </defs>
     <use xlink:href="#DejaVuSans-2192"/>
     <use xlink:href="#DejaVuSans-20" x="83.789062"/>
     <use xlink:href="#DejaVuSans-47" x="115.576172"/>
     <use xlink:href="#DejaVuSans-65" x="193.066406"/>
     <use xlink:href="#DejaVuSans-6e" x="254.589844"/>
     <use xlink:href="#DejaVuSans-65" x="317.96875"/>
     <use xlink:href="#DejaVuSans-72" x="379.492188"/>
     <use xlink:href="#DejaVuSans-61" x="420.605469"/>
     <use xlink:href="#DejaVuSans-74" x="481.884766"/>
     <use xlink:href="#DejaVuSans-6f" x="521.09375"/>
     <use xlink:href="#DejaVuSans-72" x="582.275391"/>
    </g>
   </g>
   <g id="text_17">
    <!-- Grid -->
    <g style="fill: #333333" transform="translate(576.307031 325.319375) scale(0.1 -0.1)">
     <use xlink:href="#DejaVuSans-47"/>
     <use xlink:href="#DejaVuSans-72" x="77.490234"/>
     <use xlink:href="#DejaVuSans-69" x="118.603516"/>
     <use xlink:href="#DejaVuSans-64" x="146.386719"/>
    </g>
   </g>
   <g id="text_18">
    <!-- Tritium recovery -->
    <g style="fill: #333333" transform="translate(164.582813 397.480469) scale(0.1 -0.1)">
     <use xlink:href="#DejaVuSans-54"/>
     <use xlink:href="#DejaVuSans-72" x="46.333984"/>
     <use xlink:href="#DejaVuSans-69" x="87.447266"/>
     <use xlink:href="#DejaVuSans-74" x="115.230469"/>
     <use xlink:href="#DejaVuSans-69" x="154.439453"/>
     <use xlink:href="#DejaVuSans-75" x="182.222656"/>
     <use xlink:href="#DejaVuSans-6d" x="245.601562"/>
     <use xlink:href="#DejaVuSans-20" x="343.013672"/>
     <use xlink:href="#DejaVuSans-72" x="374.800781"/>
     <use xlink:href="#DejaVuSans-65" x="413.664062"/>
     <use xlink:href="#DejaVuSans-63" x="475.1875"/>
     <use xlink:href="#DejaVuSans-6f" x="530.167969"/>
     <use xlink:href="#DejaVuSans-76" x="591.349609"/>
     <use xlink:href="#DejaVuSans-65" x="650.529297"/>
     <use xlink:href="#DejaVuSans-72" x="712.052734"/>
     <use xlink:href="#DejaVuSans-79" x="753.166016"/>
    </g>
    <!-- &amp; Detritiation (DTU) -->
    <g style="fill: #333333" transform="translate(155.335938 408.678281) scale(0.1 -0.1)">
     <use xlink:href="#DejaVuSans-26"/>
     <use xlink:href="#DejaVuSans-20" x="77.978516"/>
     <use xlink:href="#DejaVuSans-44" x="109.765625"/>
     <use xlink:href="#DejaVuSans-65" x="186.767578"/>
     <use xlink:href="#DejaVuSans-74" x="248.291016"/>
     <use xlink:href="#DejaVuSans-72" x="287.5"/>
     <use xlink:href="#DejaVuSans-69" x="328.613281"/>
     <use xlink:href="#DejaVuSans-74" x="356.396484"/>
     <use xlink:href="#DejaVuSans-69" x="395.605469"/>
     <use xlink:href="#DejaVuSans-61" x="423.388672"/>
     <use xlink:href="#DejaVuSans-74" x="484.667969"/>
     <use xlink:href="#DejaVuSans-69" x="523.876953"/>
     <use xlink:href="#DejaVuSans-6f" x="551.660156"/>
     <use xlink:href="#DejaVuSans-6e" x="612.841797"/>
     <use xlink:href="#DejaVuSans-20" x="676.220703"/>
     <use xlink:href="#DejaVuSans-28" x="708.007812"/>
     <use xlink:href="#DejaVuSans-44" x="747.021484"/>
     <use xlink:href="#DejaVuSans-54" x="824.023438"/>
     <use xlink:href="#DejaVuSans-55" x="885.107422"/>
     <use xlink:href="#DejaVuSans-29" x="958.300781"/>
    </g>
   </g>
   <g id="text_19">
    <!-- Controls, safety, -->
    <g style="fill: #333333" transform="translate(499.132031 397.480469) scale(0.1 -0.1)">
     <use xlink:href="#DejaVuSans-43"/>
     <use xlink:href="#DejaVuSans-6f" x="69.824219"/>
     <use xlink:href="#DejaVuSans-6e" x="131.005859"/>
     <use xlink:href="#DejaVuSans-74" x="194.384766"/>
     <use xlink:href="#DejaVuSans-72" x="233.59375"/>
     <use xlink:href="#DejaVuSans-6f" x="272.457031"/>
     <use xlink:href="#DejaVuSans-6c" x="333.638672"/>
     <use xlink:href="#DejaVuSans-73" x="361.421875"/>
     <use xlink:href="#DejaVuSans-2c" x="413.521484"/>
     <use xlink:href="#DejaVuSans-20" x="445.308594"/>
     <use xlink:href="#DejaVuSans-73" x="477.095703"/>
     <use xlink:href="#DejaVuSans-61" x="529.195312"/>
     <use xlink:href="#DejaVuSans-66" x="590.474609"/>
     <use xlink:href="#DejaVuSans-65" x="625.679688"/>
     <use xlink:href="#DejaVuSans-74" x="687.203125"/>
     <use xlink:href="#DejaVuSans-79" x="726.412109"/>
     <use xlink:href="#DejaVuSans-2c" x="785.591797"/>
    </g>
    <!-- Timing (FPGA/PTP/PLC) -->
    <g style="fill: #333333" transform="translate(482.690625 408.678281) scale(0.1 -0.1)">
     <use xlink:href="#DejaVuSans-54"/>
     <use xlink:href="#DejaVuSans-69" x="57.958984"/>
     <use xlink:href="#DejaVuSans-6d" x="85.742188"/>
     <use xlink:href="#DejaVuSans-69" x="183.154297"/>
     <use xlink:href="#DejaVuSans-6e" x="210.9375"/>
     <use xlink:href="#DejaVuSans-67" x="274.316406"/>
     <use xlink:href="#DejaVuSans-20" x="337.792969"/>
     <use xlink:href="#DejaVuSans-28" x="369.580078"/>
     <use xlink:href="#DejaVuSans-46" x="408.59375"/>
     <use xlink:href="#DejaVuSans-50" x="466.113281"/>
     <use xlink:href="#DejaVuSans-47" x="526.416016"/>
     <use xlink:href="#DejaVuSans-41" x="603.90625"/>
     <use xlink:href="#DejaVuSans-2f" x="672.314453"/>
     <use xlink:href="#DejaVuSans-50" x="706.005859"/>
     <use xlink:href="#DejaVuSans-54" x="766.308594"/>
     <use xlink:href="#DejaVuSans-50" x="827.392578"/>
     <use xlink:href="#DejaVuSans-2f" x="887.695312"/>
     <use xlink:href="#DejaVuSans-50" x="921.386719"/>
     <use xlink:href="#DejaVuSans-4c" x="981.689453"/>
     <use xlink:href="#DejaVuSans-43" x="1037.402344"/>
     <use xlink:href="#DejaVuSans-29" x="1107.226562"/>
    </g>
   </g>
   <g id="text_20">
    <!-- heat -->
    <g style="fill: #333333" transform="translate(367.857422 255.888281) scale(0.09 -0.09)">
     <use xlink:href="#DejaVuSans-68"/>
     <use xlink:href="#DejaVuSans-65" x="63.378906"/>
     <use xlink:href="#DejaVuSans-61" x="124.902344"/>
     <use xlink:href="#DejaVuSans-74" x="186.181641"/>
    </g>
   </g>
   <g id="text_21">
    <!-- thermal -->
    <g style="fill: #333333" transform="translate(227.252812 312.048281) scale(0.09 -0.09)">
     <use xlink:href="#DejaVuSans-74"/>
     <use xlink:href="#DejaVuSans-68" x="39.208984"/>
     <use xlink:href="#DejaVuSans-65" x="102.587891"/>
     <use xlink:href="#DejaVuSans-72" x="164.111328"/>
     <use xlink:href="#DejaVuSans-6d" x="203.474609"/>
     <use xlink:href="#DejaVuSans-61" x="300.886719"/>
     <use xlink:href="#DejaVuSans-6c" x="362.166016"/>
    </g>
   </g>
   <g id="text_22">
    <!-- electricity -->
    <g style="fill: #333333" transform="translate(460.121484 312.048281) scale(0.09 -0.09)">
     <use xlink:href="#DejaVuSans-65"/>
     <use xlink:href="#DejaVuSans-6c" x="61.523438"/>
     <use xlink:href="#DejaVuSans-65" x="89.306641"/>
     <use xlink:href="#DejaVuSans-63" x="150.830078"/>
     <use xlink:href="#DejaVuSans-74" x="205.810547"/>
     <use xlink:href="#DejaVuSans-72" x="245.019531"/>
     <use xlink:href="#DejaVuSans-69" x="286.132812"/>
     <use xlink:href="#DejaVuSans-63" x="313.916016"/>
     <use xlink:href="#DejaVuSans-69" x="368.896484"/>
     <use xlink:href="#DejaVuSans-74" x="396.679688"/>
     <use xlink:href="#DejaVuSans-79" x="435.888672"/>
    </g>
   </g>
   <g id="text_23">
    <!-- He sweep -->
    <g style="fill: #333333" transform="translate(157.997812 340.85025) scale(0.09 -0.09)">
     <use xlink:href="#DejaVuSans-48"/>
     <use xlink:href="#DejaVuSans-65" x="75.195312"/>
     <use xlink:href="#DejaVuSans-20" x="136.71875"/>
     <use xlink:href="#DejaVuSans-73" x="168.505859"/>
     <use xlink:href="#DejaVuSans-77" x="220.605469"/>
     <use xlink:href="#DejaVuSans-65" x="302.392578"/>
     <use xlink:href="#DejaVuSans-65" x="363.916016"/>
     <use xlink:href="#DejaVuSans-70" x="425.439453"/>
    </g>
    <!-- T capture -->
    <g style="fill: #333333" transform="translate(158.598984 350.928281) scale(0.09 -0.09)">
     <use xlink:href="#DejaVuSans-54"/>
     <use xlink:href="#DejaVuSans-20" x="61.083984"/>
     <use xlink:href="#DejaVuSans-63" x="92.871094"/>
     <use xlink:href="#DejaVuSans-61" x="147.851562"/>
     <use xlink:href="#DejaVuSans-70" x="209.130859"/>
     <use xlink:href="#DejaVuSans-74" x="272.607422"/>
     <use xlink:href="#DejaVuSans-75" x="311.816406"/>
     <use xlink:href="#DejaVuSans-72" x="375.195312"/>
     <use xlink:href="#DejaVuSans-65" x="414.058594"/>
    </g>
   </g>
   <g id="text_24">
    <!-- commands -->
    <g style="fill: #333333" transform="translate(421.595156 366.048281) scale(0.09 -0.09)">
     <use xlink:href="#DejaVuSans-63"/>
     <use xlink:href="#DejaVuSans-6f" x="54.980469"/>
     <use xlink:href="#DejaVuSans-6d" x="116.162109"/>
     <use xlink:href="#DejaVuSans-6d" x="213.574219"/>
     <use xlink:href="#DejaVuSans-61" x="310.986328"/>
     <use xlink:href="#DejaVuSans-6e" x="372.265625"/>
     <use xlink:href="#DejaVuSans-64" x="435.644531"/>
     <use xlink:href="#DejaVuSans-73" x="499.121094"/>
    </g>
   </g>
   <g id="text_25">
    <!-- MBFR — System Block Diagram -->
    <g style="fill: #333333" transform="translate(21.6 24.958125) scale(0.12 -0.12)">
     <defs>
      <path id="DejaVuSans-42" d="M 1259 2228 
L 1259 519 
L 2272 519 
Q 2781 519 3026 730 
Q 3272 941 3272 1375 
Q 3272 1813 3026 2020 
Q 2781 2228 2272 2228 
L 1259 2228 
z
M 1259 4147 
L 1259 2741 
L 2194 2741 
Q 2656 2741 2882 2914 
Q 3109 3088 3109 3444 
Q 3109 3797 2882 3972 
Q 2656 4147 2194 4147 
L 1259 4147 
z
M 628 4666 
L 2241 4666 
Q 2963 4666 3353 4366 
Q 3744 4066 3744 3513 
Q 3744 3084 3544 2831 
Q 3344 2578 2956 2516 
Q 3422 2416 3680 2098 
Q 3938 1781 3938 1306 
Q 3938 681 3513 340 
Q 3088 0 2303 0 
L 628 0 
L 628 4666 
z
" transform="scale(0.015625)"/>
      <path id="DejaVuSans-52" d="M 2841 2188 
Q 3044 2119 3236 1894 
Q 3428 1669 3622 1275 
L 4263 0 
L 3584 0 
L 2988 1197 
Q 2756 1666 2539 1819 
Q 2322 1972 1947 1972 
L 1259 1972 
L 1259 0 
L 628 0 
L 628 4666 
L 2053 4666 
Q 2853 4666 3247 4331 
Q 3641 3997 3641 3322 
Q 3641 2881 3436 2590 
Q 3231 2300 2841 2188 
z
M 1259 4147 
L 1259 2491 
L 2053 2491 
Q 2509 2491 2742 2702 
Q 2975 2913 2975 3322 
Q 2975 3731 2742 3939 
Q 2509 4147 2053 4147 
L 1259 4147 
z
" transform="scale(0.015625)"/>
      <path id="DejaVuSans-2014" d="M 313 1978 
L 6088 1978 
L 6088 1528 
L 313 1528 
L 313 1978 
z
" transform="scale(0.015625)"/>
      <path id="DejaVuSans-53" d="M 3425 4513 
L 3425 3897 
Q 3066 4069 2747 4153 
Q 2428 4238 2131 4238 
Q 1616 4238 1336 4038 
Q 1056 3838 1056 3469 
Q 1056 3159 1242 3001 
Q 1428 2844 1947 2747 
L 2328 2669 
Q 3034 2534 3370 2195 
Q 3706 1856 3706 1288 
Q 3706 609 3251 259 
Q 2797 -91 1919 -91 
Q 1588 -91 1214 -16 
Q 841 59 441 206 
L 441 856 
Q 825 641 1194 531 
Q 1563 422 1919 422 
Q 2459 422 2753 634 
Q 3047 847 3047 1241 
Q 3047 1584 2836 1778 
Q 2625 1972 2144 2069 
L 1759 2144 
Q 1053 2284 737 2584 
Q 422 2884 422 3419 
Q 422 4038 858 4394 
Q 1294 4750 2059 4750 
Q 2388 4750 2728 4690 
Q 3069 4631 3425 4513 
z
" transform="scale(0.015625)"/>
     </defs>
     <use xlink:href="#DejaVuSans-4d"/>
     <use xlink:href="#DejaVuSans-42" x="86.279297"/>
     <use xlink:href="#DejaVuSans-46" x="154.882812"/>
     <use xlink:href="#DejaVuSans-52" x="212.402344"/>
     <use xlink:href="#DejaVuSans-20" x="281.884766"/>
     <use xlink:href="#DejaVuSans-2014" x="313.671875"/>
     <use xlink:href="#DejaVuSans-20" x="413.671875"/>
     <use xlink:href="#DejaVuSans-53" x="445.458984"/>
     <use xlink:href="#DejaVuSans-79" x="508.935547"/>
     <use xlink:href="#DejaVuSans-73" x="568.115234"/>
     <use xlink:href="#DejaVuSans-74" x="620.214844"/>
     <use xlink:href="#DejaVuSans-65" x="659.423828"/>
     <use xlink:href="#DejaVuSans-6d" x="720.947266"/>
     <use xlink:href="#DejaVuSans-20" x="818.359375"/>
     <use xlink:href="#DejaVuSans-42" x="850.146484"/>
     <use xlink:href="#DejaVuSans-6c" x="918.75"/>
     <use xlink:href="#DejaVuSans-6f" x="946.533203"/>
     <use xlink:href="#DejaVuSans-63" x="1007.714844"/>
     <use xlink:href="#DejaVuSans-6b" x="1062.695312"/>
     <use xlink:href="#DejaVuSans-20" x="1120.605469"/>
     <use xlink:href="#DejaVuSans-44" x="1152.392578"/>
     <use xlink:href="#DejaVuSans-69" x="1229.394531"/>
     <use xlink:href="#DejaVuSans-61" x="1257.177734"/>
     <use xlink:href="#DejaVuSans-67" x="1318.457031"/>
     <use xlink:href="#DejaVuSans-72" x="1381.933594"/>
     <use xlink:href="#DejaVuSans-61" x="1423.046875"/>
     <use xlink:href="#DejaVuSans-6d" x="1484.326172"/>
    </g>
   </g>
  </g>
 </g>
 <defs>
  <clipPath id="p9dee57aa75">
   <rect x="7.2" y="7.2" width="720" height="432"/>
  </clipPath>
 </defs>
</svg>
